<svg width="180" height="180" viewBox="0 0 180 180" fill="none" xmlns="http://www.w3.org/2000/svg">
<g id="Arrow_04" clip-path="url(#clip0_1108_1071)">
<g id="Group">
<path id="Vector" fill-rule="evenodd" clip-rule="evenodd" d="M6.59684 106.589C47.203 60.0358 109.389 64.7728 161.18 90.1004C162.071 90.5337 163.148 90.1661 163.582 89.2757C164.015 88.3853 163.647 87.3078 162.757 86.8745C109.517 60.8345 45.6332 56.3733 3.89022 104.231C3.2384 104.976 3.31668 106.109 4.06475 106.763C4.80901 107.415 5.94257 107.337 6.59684 106.589Z" fill="#2355D0"/>
<path id="Vector_2" fill-rule="evenodd" clip-rule="evenodd" d="M160.997 88.0112C157.848 88.198 153.893 88.3887 153.445 88.4234C141.301 89.3643 129.953 92.1389 118.618 96.6677C117.698 97.0341 117.249 98.0819 117.616 99.0024C117.982 99.9228 119.03 100.371 119.95 100.005C130.941 95.6095 141.945 92.9158 153.726 92.0044C154.412 91.9509 163.302 91.5277 165.093 91.3071C165.829 91.2201 166.217 90.9424 166.303 90.8682C166.772 90.4913 166.92 90.0529 166.967 89.6952C167.017 89.291 166.937 88.6035 166.368 87.9138C165.77 87.1943 164.17 86.013 163.79 85.6822C158.075 80.675 151.259 75.5846 145.923 69.6037C140.833 63.9005 137.084 57.3793 137.227 49.2419C137.245 48.2513 136.452 47.4331 135.461 47.4148C134.471 47.3966 133.652 48.1899 133.634 49.1805C133.476 58.2783 137.554 65.6202 143.241 71.9939C148.547 77.9389 155.268 83.0332 160.997 88.0112Z" fill="#2355D0"/>
</g>
</g>
<defs>
<clipPath id="clip0_1108_1071">
<rect width="130" height="130" fill="white" transform="translate(109.292 179.686) rotate(-147.215)"/>
</clipPath>
</defs>
</svg>
