<svg width="72" height="72" viewBox="0 0 72 72" fill="none" xmlns="http://www.w3.org/2000/svg">
<g id="Arrow">
<path id="Vector" fill-rule="evenodd" clip-rule="evenodd" d="M8.15712 2.20696C31.981 7.56964 45.754 14.6079 52.3781 22.0675C62.3807 33.3329 56.0893 45.5617 43.1347 54.5236C34.9956 60.1563 20.95 63.08 7.55524 67.9836C7.0132 68.1822 7.33057 68.4675 8.2653 68.6209C9.1951 68.7741 10.3972 68.7376 10.9343 68.5388C24.486 63.5779 38.6257 60.6089 46.8619 54.9105C59.9966 45.8237 66.3454 33.4225 56.2048 21.999C49.3987 14.3337 35.1649 7.10762 10.6823 1.59637C9.85769 1.41063 8.62626 1.3963 7.92881 1.56488C7.23137 1.73345 7.33247 2.02122 8.15712 2.20696Z" fill="#2355D0"/>
<path id="Vector_2" fill-rule="evenodd" clip-rule="evenodd" d="M15.9838 69.7597C16.0296 69.7439 16.3249 69.6369 16.6139 69.5553C17.8029 69.215 20.1284 68.6751 23.2481 68.0433C33.7246 65.9278 53.1194 62.7919 69.3308 62.8839C70.2659 62.8891 70.9362 62.7019 70.8305 62.4658C70.7248 62.2297 69.8849 62.0336 68.9497 62.0284C52.082 61.9326 31.8021 65.1481 20.9041 67.35C19.4454 67.6453 18.1483 67.9215 17.0544 68.1694C17.9173 67.0148 18.9012 65.8721 19.9411 64.731C22.9396 61.4466 22.7128 58.3556 19.6248 54.8443C19.4206 54.6097 18.5055 54.435 17.5897 54.456C16.6738 54.4758 16.0954 54.6839 16.3039 54.9186C19.2735 58.2983 19.4992 61.2748 16.6147 64.4363C15.2571 65.9276 13.9941 67.4236 12.9603 68.9412C12.8573 69.0922 12.6076 69.486 12.6082 69.5438C12.6103 69.8731 13.6917 69.9852 13.9337 70.0071C14.0503 70.0179 15.5178 70.1313 15.9838 69.7597ZM12.7572 69.3791C12.7452 69.3895 12.7288 69.3997 12.7169 69.4111C12.7247 69.4017 12.7411 69.3915 12.7572 69.3791Z" fill="#2355D0"/>
</g>
</svg>
