<svg width="107" height="107" viewBox="0 0 107 107" fill="none" xmlns="http://www.w3.org/2000/svg">
<g filter="url(#filter0_d_1108_1133)">
<ellipse cx="53.5" cy="53.5" rx="33.5" ry="33.5" transform="rotate(180 53.5 53.5)" fill="#2355D0"/>
<path d="M42.1348 52.2953C41.5273 52.2953 41.0348 52.7877 41.0348 53.3953C41.0348 54.0028 41.5273 54.4953 42.1348 54.4953L42.1348 52.2953ZM64.6563 54.4953C65.2638 54.4953 65.7563 54.0028 65.7563 53.3953C65.7563 52.7877 65.2638 52.2953 64.6563 52.2953L64.6563 54.4953ZM59.8002 45.576C59.3688 45.1483 58.6723 45.1514 58.2446 45.5829C57.817 46.0144 57.8201 46.7109 58.2516 47.1386L59.8002 45.576ZM61.5075 48.8168L60.7331 49.5981L61.5075 48.8168ZM61.5075 57.9737L60.7331 57.1924L61.5075 57.9737ZM58.2516 59.6519C57.8201 60.0796 57.817 60.7761 58.2446 61.2076C58.6723 61.6391 59.3688 61.6422 59.8002 61.2145L58.2516 59.6519ZM64.6283 52.9542L65.7195 52.8151L65.7195 52.8151L64.6283 52.9542ZM64.6283 53.8363L65.7195 53.9754L65.7195 53.9754L64.6283 53.8363ZM42.1348 54.4953L64.6563 54.4953L64.6563 52.2953L42.1348 52.2953L42.1348 54.4953ZM58.2516 47.1386L60.7331 49.5981L62.2818 48.0355L59.8002 45.576L58.2516 47.1386ZM60.7331 57.1924L58.2516 59.6519L59.8002 61.2145L62.2818 58.755L60.7331 57.1924ZM60.7331 49.5981C61.741 50.597 62.4297 51.2819 62.8952 51.8616C63.3468 52.4239 63.4971 52.7795 63.5371 53.0933L65.7195 52.8151C65.6071 51.9336 65.1865 51.2012 64.6105 50.484C64.0485 49.7841 63.2529 48.998 62.2818 48.0355L60.7331 49.5981ZM62.2818 58.755C63.2529 57.7925 64.0485 57.0064 64.6105 56.3065C65.1865 55.5893 65.6071 54.8569 65.7195 53.9754L63.5371 53.6972C63.4971 54.011 63.3468 54.3666 62.8952 54.9289C62.4297 55.5086 61.741 56.1935 60.7331 57.1924L62.2818 58.755ZM63.5371 53.0933C63.5627 53.2938 63.5627 53.4967 63.5371 53.6972L65.7195 53.9754C65.7686 53.5902 65.7686 53.2003 65.7195 52.8151L63.5371 53.0933Z" fill="white"/>
</g>
<defs>
<filter id="filter0_d_1108_1133" x="0" y="0" width="107" height="107" filterUnits="userSpaceOnUse" color-interpolation-filters="sRGB">
<feFlood flood-opacity="0" result="BackgroundImageFix"/>
<feColorMatrix in="SourceAlpha" type="matrix" values="0 0 0 0 0 0 0 0 0 0 0 0 0 0 0 0 0 0 127 0" result="hardAlpha"/>
<feOffset/>
<feGaussianBlur stdDeviation="10"/>
<feComposite in2="hardAlpha" operator="out"/>
<feColorMatrix type="matrix" values="0 0 0 0 0.137255 0 0 0 0 0.333333 0 0 0 0 0.815686 0 0 0 0.25 0"/>
<feBlend mode="normal" in2="BackgroundImageFix" result="effect1_dropShadow_1108_1133"/>
<feBlend mode="normal" in="SourceGraphic" in2="effect1_dropShadow_1108_1133" result="shape"/>
</filter>
</defs>
</svg>
