<svg width="150" height="259" viewBox="0 0 150 259" fill="none" xmlns="http://www.w3.org/2000/svg">
<g id="Arrow">
<g id="Group">
<g id="Group_2">
<path id="Vector" fill-rule="evenodd" clip-rule="evenodd" d="M12.3968 82.9144C27.0636 84.3385 44.6305 92.0273 61.3064 102.689C86.2208 118.62 109.143 141.17 117.412 159.085C117.577 159.454 117.365 159.764 116.94 159.775C116.505 159.788 116.023 159.5 115.851 159.127C107.707 141.49 85.0984 119.305 60.5602 103.62C44.264 93.1986 27.1088 85.634 12.7729 84.2471C12.3182 84.2044 11.8711 83.8713 11.7649 83.5012C11.6637 83.1402 11.9421 82.8717 12.3968 82.9144Z" fill="#2355D0"/>
</g>
<g id="Group_3">
<path id="Vector_2" fill-rule="evenodd" clip-rule="evenodd" d="M130.812 181.287C125.175 170.057 118.989 160.281 118.225 148.854C118.205 148.471 118.567 148.254 119.049 148.38C119.525 148.496 119.935 148.905 119.957 149.283C120.8 161.857 128.356 172.403 134.332 185.167C134.651 185.857 134.161 186.008 134.037 186.035C133.854 186.077 133.527 186.086 133.113 185.785C133.032 185.725 132.885 185.595 132.703 185.396C132.361 185.011 131.729 184.201 131.411 183.85C130.486 182.84 129.541 181.848 128.616 180.838C125.969 177.952 123.302 175.088 120.443 172.323C109.761 161.972 101.086 153.471 86.4981 149.764C86.0138 149.644 85.6118 149.238 85.5846 148.851C85.5625 148.473 85.9319 148.261 86.4057 148.382C101.497 152.213 110.531 160.923 121.58 171.626C124.471 174.429 127.18 177.33 129.853 180.245C130.171 180.596 130.492 180.942 130.812 181.287Z" fill="#2355D0"/>
</g>
</g>
</g>
</svg>
