<svg width="215" height="175" viewBox="0 0 215 175" fill="none" xmlns="http://www.w3.org/2000/svg">
<g id="Arrow">
<path id="Vector" fill-rule="evenodd" clip-rule="evenodd" d="M16.1742 55.0674C59.9145 41.2708 90.8662 40.0653 111.614 46.4906C142.945 56.1954 151.022 83.2982 144.324 111.222C140.118 128.769 123.084 147.365 109.883 168.737C109.349 169.602 110.239 169.786 111.873 169.146C113.5 168.512 115.265 167.288 115.791 166.427C129.148 144.805 146.259 126.04 150.516 108.286C157.307 79.9737 149.069 52.5191 117.302 42.6759C95.9832 36.0727 64.0646 37.4004 19.1145 51.578C17.6003 52.0554 15.7175 53.2204 14.9053 54.1841C14.0931 55.1477 14.66 55.5448 16.1742 55.0674Z" fill="#2355D0"/>
<path id="Vector_2" fill-rule="evenodd" clip-rule="evenodd" d="M114.381 170.397C114.436 170.317 114.784 169.796 115.16 169.328C116.701 167.394 119.909 163.841 124.354 159.242C139.292 143.809 168.148 116.658 196.449 98.9003C198.081 97.8759 198.957 96.794 198.41 96.4813C197.862 96.1687 196.101 96.7406 194.469 97.7651C165.023 116.242 134.751 144.516 119.214 160.572C117.136 162.722 115.308 164.659 113.79 166.319C113.51 163.264 113.458 160.097 113.507 156.871C113.654 147.58 108.498 142.207 97.7247 139.232C97.0086 139.031 95.1499 139.725 93.5914 140.776C92.0311 141.824 91.347 142.842 92.0708 143.039C102.436 145.905 107.414 151.071 107.275 160.013C107.214 164.228 107.325 168.346 107.868 172.251C107.922 172.639 108.095 173.632 108.185 173.736C108.696 174.333 110.747 173.342 111.201 173.114C111.42 173.004 114.144 171.588 114.381 170.397ZM108.19 173.272C108.185 173.304 108.172 173.341 108.169 173.375C108.168 173.349 108.181 173.312 108.19 173.272Z" fill="#2355D0"/>
</g>
</svg>
