<svg width="12" height="12" viewBox="0 0 12 12" fill="none" xmlns="http://www.w3.org/2000/svg">
<g id="Arrow">
<g id="Down 1">
<path id="Vector" d="M2 5.5C1.72386 5.5 1.5 5.72386 1.5 6C1.5 6.27614 1.72386 6.5 2 6.5L2 5.5ZM10 6.5C10.2761 6.5 10.5 6.27614 10.5 6C10.5 5.72386 10.2761 5.5 10 5.5L10 6.5ZM8.35197 3.14487C8.15584 2.95048 7.83926 2.9519 7.64487 3.14803C7.45048 3.34416 7.4519 3.66074 7.64803 3.85513L8.35197 3.14487ZM8.88148 4.37366L8.52951 4.72878L8.88148 4.37366ZM8.88148 7.62635L8.52951 7.27122L8.88148 7.62635ZM7.64803 8.14487C7.4519 8.33926 7.45048 8.65584 7.64487 8.85197C7.83926 9.0481 8.15584 9.04952 8.35197 8.85513L7.64803 8.14487ZM9.99006 5.84333L10.486 5.78011L10.486 5.78011L9.99006 5.84333ZM9.99005 6.15667L10.486 6.21989L10.486 6.21989L9.99005 6.15667ZM2 6.5L10 6.5L10 5.5L2 5.5L2 6.5ZM7.64803 3.85513L8.52951 4.72878L9.23346 4.01853L8.35197 3.14487L7.64803 3.85513ZM8.52951 7.27122L7.64803 8.14487L8.35197 8.85513L9.23346 7.98147L8.52951 7.27122ZM8.52951 4.72878C8.88935 5.08542 9.12868 5.32369 9.28924 5.52362C9.44347 5.71567 9.48345 5.82327 9.49407 5.90655L10.486 5.78011C10.4425 5.4388 10.2797 5.15992 10.0689 4.89746C9.86448 4.64288 9.57659 4.35861 9.23346 4.01853L8.52951 4.72878ZM9.23346 7.98147C9.57659 7.64139 9.86449 7.35712 10.0689 7.10254C10.2797 6.84008 10.4425 6.5612 10.486 6.21989L9.49407 6.09345C9.48345 6.17673 9.44347 6.28433 9.28924 6.47638C9.12868 6.67631 8.88935 6.91458 8.52951 7.27122L9.23346 7.98147ZM9.49407 5.90655C9.50198 5.96861 9.50198 6.03139 9.49407 6.09345L10.486 6.21989C10.5047 6.07388 10.5047 5.92612 10.486 5.78011L9.49407 5.90655Z" fill="#1B3544"/>
</g>
</g>
</svg>
