<svg width="32" height="34" viewBox="0 0 32 34" fill="none" xmlns="http://www.w3.org/2000/svg">
<g id="building 2" clip-path="url(#clip0_444_3818)">
<g id="building">
<path id="Combined-Shape" fill-rule="evenodd" clip-rule="evenodd" d="M31.4944 0.933458C31.8086 1.11561 31.9998 1.43717 32 1.78347V31.7837C32 32.336 31.5224 32.7837 30.9333 32.7837H24.5333C23.9442 32.7837 23.4667 32.336 23.4667 31.7837V28.7837H21.3333V31.7837C21.3333 32.336 20.8558 32.7837 20.2667 32.7837H1.06667C0.477563 32.7837 0 32.336 0 31.7837V20.7836C0.000348427 20.3534 0.294193 19.9716 0.7296 19.8356L12.8 16.0636V9.78352C12.8 9.40508 13.0279 9.05906 13.3888 8.88952L30.4555 0.889458C30.7865 0.734135 31.1797 0.750789 31.4944 0.933458ZM12.8 18.1716L2.13333 21.5036V30.7837H12.8V18.1716ZM14.9333 30.7837H19.2V27.7837C19.2 27.2314 19.6776 26.7836 20.2667 26.7836H24.5333C25.1224 26.7836 25.6 27.2314 25.6 27.7837V30.7837H29.8667V3.40148L14.9333 10.4015V30.7837ZM4.26667 22.7836H6.4V24.7836H4.26667V22.7836ZM8.53333 22.7836H10.6667V24.7836H8.53333V22.7836ZM4.26667 26.7836H6.4V28.7837H4.26667V26.7836ZM8.53333 26.7836H10.6667V28.7837H8.53333V26.7836ZM17.0667 18.7836H19.2V20.7836H17.0667V18.7836ZM21.3333 18.7836H23.4667V20.7836H21.3333V18.7836ZM17.0667 22.7836H19.2V24.7836H17.0667V22.7836ZM21.3333 22.7836H23.4667V24.7836H21.3333V22.7836ZM25.6 18.7836H27.7333V20.7836H25.6V18.7836ZM25.6 22.7836H27.7333V24.7836H25.6V22.7836ZM17.0667 14.7836H19.2V16.7836H17.0667V14.7836ZM21.3333 14.7836H23.4667V16.7836H21.3333V14.7836ZM25.6 14.7836H27.7333V16.7836H25.6V14.7836ZM17.0667 10.7835H19.2V12.7835H17.0667V10.7835ZM21.3333 10.7835H23.4667V12.7835H21.3333V10.7835ZM25.6 10.7835H27.7333V12.7835H25.6V10.7835ZM25.6 6.7835H27.7333V8.78352H25.6V6.7835Z" fill="#5587FF"/>
</g>
</g>
<defs>
<clipPath id="clip0_444_3818">
<rect width="32" height="33" fill="white" transform="translate(0 0.5)"/>
</clipPath>
</defs>
</svg>
