<svg width="24" height="32" viewBox="0 0 24 32" fill="none" xmlns="http://www.w3.org/2000/svg">
<g id="Call" clip-path="url(#clip0_444_3808)">
<path id="Shape" d="M7.08024 0.0321844C8.70913 -0.196629 10.0777 0.824282 10.7254 2.15144L12.3196 5.41787C13.204 7.23012 12.6964 9.35606 11.3549 10.6943C10.5638 11.4836 9.7681 12.3856 9.30616 13.1814C9.28099 13.2248 9.26563 13.2892 9.27978 13.3678C9.70609 15.7371 11.2737 18.0787 12.6717 19.7571C12.7967 19.9073 13.0164 19.9809 13.2436 19.9082L16.3852 18.9022C18.1223 18.346 20.0105 19.0147 21.0416 20.5514L23.3153 23.9398C23.9321 24.859 24.2436 26.1065 23.7711 27.3056C23.3491 28.3765 22.5324 29.9223 21.0476 30.9494C19.5068 32.0153 17.3958 32.4202 14.6342 31.4497C11.548 30.3652 8.63214 27.6443 6.21464 24.1641C3.78269 20.6631 1.78112 16.2892 0.567026 11.7288C-0.579491 7.42222 0.113458 4.5246 1.74251 2.65738C3.31426 0.855859 5.56674 0.244788 7.08024 0.0321844ZM8.95831 3.05688C8.59776 2.31811 7.9531 1.95293 7.34859 2.03784C6.00433 2.22667 4.32087 2.73962 3.21549 4.00659C2.16743 5.20788 1.44209 7.32325 2.47312 11.196C3.6304 15.5431 5.53657 19.6968 7.82429 22.9902C10.1265 26.3044 12.7422 28.6447 15.2751 29.5348C17.531 30.3275 18.9815 29.9361 19.9421 29.2716C20.9588 28.5683 21.5836 27.4496 21.9391 26.5476C22.102 26.1342 22.032 25.6005 21.6873 25.0867L19.4136 21.6984C18.8735 20.8934 17.8844 20.5431 16.9745 20.8345L13.8329 21.8404C12.8943 22.141 11.8367 21.8732 11.1688 21.0713C9.71397 19.3246 7.86055 16.6457 7.33679 13.7349C7.24115 13.2034 7.32372 12.6364 7.6081 12.1465C8.20677 11.1152 9.15534 10.0632 9.97666 9.24384C10.7789 8.44354 11.0061 7.25292 10.5525 6.32331L8.95831 3.05688Z" fill="#5587FF"/>
</g>
<defs>
<clipPath id="clip0_444_3808">
<rect width="24" height="32" fill="white"/>
</clipPath>
</defs>
</svg>
