<svg width="104" height="140" viewBox="0 0 104 140" fill="none" xmlns="http://www.w3.org/2000/svg">
<g id="comissar" clip-path="url(#clip0_1115_1263)">
<path id="Vector" d="M103.48 43.54C103.505 55.0371 98.9997 66.0813 90.9395 74.28C86.7095 71.83 80.7895 69.53 72.5195 66.8V57.22C74.8968 54.3453 76.195 50.7303 76.1895 47V36C76.7595 35.7 77.3095 35.37 77.8595 35C78.0143 34.9065 78.1408 34.7728 78.2256 34.6131C78.3103 34.4534 78.3502 34.2737 78.341 34.0931C78.3318 33.9125 78.2738 33.7378 78.1731 33.5876C78.0725 33.4374 77.933 33.3172 77.7695 33.24C77.2495 33 76.7695 32.77 76.1895 32.57C76.1895 32.57 82.6495 25.57 80.9995 22.13C79.3495 18.69 71.8695 12.25 60.4795 12.25C49.0895 12.25 41.6095 18.78 39.9995 22.17C38.3895 25.56 44.7995 32.61 44.7995 32.61C44.2695 32.82 43.7995 33.04 43.2295 33.28C43.0655 33.3563 42.9252 33.4756 42.8236 33.6253C42.722 33.775 42.663 33.9494 42.6527 34.1301C42.6425 34.3107 42.6814 34.4907 42.7653 34.6509C42.8493 34.8112 42.9752 34.9456 43.1295 35.04C43.6895 35.38 44.2395 35.7 44.7995 36.04V47C44.7878 50.7362 46.0904 54.3575 48.4795 57.23V66.8C40.2095 69.53 34.2895 71.8 30.0595 74.28C21.9848 66.0878 17.4647 55.0428 17.4795 43.54C17.4795 19.54 36.7295 0 60.4795 0C84.2295 0 103.48 19.49 103.48 43.54Z" fill="#83ACED"/>
<path id="Vector_2" d="M44.76 36V47C44.7361 51.194 46.3785 55.2259 49.3263 58.2093C52.2741 61.1928 56.286 62.8836 60.48 62.91" stroke="#1B3544" stroke-width="4" stroke-linecap="round" stroke-linejoin="round"/>
<path id="Vector_3" d="M48.4404 66.8V57.22" stroke="#1B3544" stroke-width="4" stroke-linecap="round" stroke-linejoin="round"/>
<path id="Vector_4" d="M41.6702 109.37L60.4802 113.66V78.6601L48.4802 66.8101C39.6502 69.7201 33.4802 72.1501 29.2402 74.8101" stroke="#1B3544" stroke-width="4" stroke-linecap="round" stroke-linejoin="round"/>
<path id="Vector_5" d="M60.4802 30.29C53.5602 30.4 48.0802 30.98 43.1902 33.29C43.0382 33.3712 42.9098 33.4902 42.8173 33.6355C42.7249 33.7809 42.6716 33.9476 42.6625 34.1196C42.6535 34.2917 42.689 34.4631 42.7657 34.6173C42.8424 34.7716 42.9576 34.9034 43.1002 35C48.3179 38.2116 54.3551 39.8408 60.4802 39.69" stroke="#1B3544" stroke-width="4" stroke-linecap="round" stroke-linejoin="round"/>
<path id="Vector_6" d="M44.7601 32.61C44.7601 32.61 38.3101 25.55 40.0001 22.17C41.6901 18.79 49.1301 12.29 60.5201 12.29" stroke="#1B3544" stroke-width="4" stroke-linecap="round" stroke-linejoin="round"/>
<path id="Vector_7" d="M76.1905 36V47C76.2036 49.0762 75.8077 51.1347 75.0254 53.0579C74.243 54.9811 73.0895 56.7314 71.6306 58.2087C70.1718 59.6861 68.4363 60.8617 66.5231 61.6684C64.61 62.475 62.5567 62.8969 60.4805 62.91" stroke="#1B3544" stroke-width="4" stroke-linecap="round" stroke-linejoin="round"/>
<path id="Vector_8" d="M72.5195 66.8C101.52 76.37 101.52 80.68 101.52 104.3L60.5195 113.66V78.66L72.5195 66.81V57.22" stroke="#1B3544" stroke-width="4" stroke-linecap="round" stroke-linejoin="round"/>
<path id="Vector_9" d="M60.4805 30.29C67.4005 30.4 72.8805 30.98 77.7705 33.29C77.9224 33.3712 78.0508 33.4902 78.1433 33.6355C78.2357 33.7809 78.2891 33.9476 78.2981 34.1196C78.3072 34.2917 78.2717 34.4631 78.195 34.6173C78.1183 34.7716 78.0031 34.9034 77.8605 35C72.6423 38.2106 66.6054 39.8396 60.4805 39.69" stroke="#1B3544" stroke-width="4" stroke-linecap="round" stroke-linejoin="round"/>
<path id="Vector_10" d="M76.1905 32.61C76.1905 32.61 82.6505 25.55 81.0005 22.17C79.3505 18.79 71.8705 12.29 60.4805 12.29" stroke="#1B3544" stroke-width="4" stroke-linecap="round" stroke-linejoin="round"/>
<path id="Vector_11" d="M48.4404 57.23C49.9016 58.999 51.734 60.4249 53.8078 61.4065C55.8816 62.3881 58.146 62.9014 60.4404 62.91" stroke="#1B3544" stroke-width="4" stroke-linecap="round" stroke-linejoin="round"/>
<path id="Vector_12" d="M44.7598 36.01V36" stroke="#1B3544" stroke-width="4" stroke-linecap="round" stroke-linejoin="round"/>
<path id="Vector_13" d="M29.9997 74.28L29.1797 74.77" stroke="#1B3544" stroke-width="4" stroke-linecap="round" stroke-linejoin="round"/>
<path id="Vector_14" d="M48.4399 66.8L60.4799 78.65V87.08V113.66L41.6699 109.37" stroke="#1B3544" stroke-width="4" stroke-linecap="round" stroke-linejoin="round"/>
<path id="Vector_15" d="M44.7598 36C49.6019 38.5455 55.0104 39.822 60.4798 39.71" stroke="#1B3544" stroke-width="4" stroke-linecap="round" stroke-linejoin="round"/>
<path id="Vector_16" d="M44.7598 32.6101C49.2498 30.8601 54.2898 30.38 60.4798 30.3" stroke="#1B3544" stroke-width="4" stroke-linecap="round" stroke-linejoin="round"/>
<path id="Vector_17" d="M60.4805 62.91C62.776 62.9022 65.0416 62.3883 67.1158 61.4048C69.1899 60.4213 71.0217 58.9924 72.4805 57.22" stroke="#1B3544" stroke-width="4" stroke-linecap="round" stroke-linejoin="round"/>
<path id="Vector_18" d="M76.1904 36.01V36" stroke="#1B3544" stroke-width="4" stroke-linecap="round" stroke-linejoin="round"/>
<path id="Vector_19" d="M72.5195 66.8L60.5195 78.65V113.65L101.52 104.29C101.52 87.41 101.52 80.39 90.9395 74.29" stroke="#1B3544" stroke-width="4" stroke-linecap="round" stroke-linejoin="round"/>
<path id="Vector_20" d="M60.4805 39.72C65.9476 39.8298 71.3531 38.5498 76.1905 36" stroke="#1B3544" stroke-width="4" stroke-linecap="round" stroke-linejoin="round"/>
<path id="Vector_21" d="M60.4805 30.3C66.6705 30.38 71.7105 30.8601 76.1905 32.6101" stroke="#1B3544" stroke-width="4" stroke-linecap="round" stroke-linejoin="round"/>
<path id="Vector_22" d="M79.7199 81.6899C81.5199 83.0499 84.1099 83.8599 86.3099 82.8999C88.2399 90.8999 85.4699 97.0399 79.6999 98.7699C74.3599 96.9999 71.1499 90.9299 73.0799 82.8999C74.1921 83.321 75.3981 83.4309 76.5681 83.2177C77.7381 83.0045 78.8278 82.4763 79.7199 81.6899Z" fill="#2355D0"/>
<path id="Vector_23" d="M19.0705 114.9C28.2329 114.9 35.6605 107.378 35.6605 98.1C35.6605 88.8217 28.2329 81.3 19.0705 81.3C9.90806 81.3 2.48047 88.8217 2.48047 98.1C2.48047 107.378 9.90806 114.9 19.0705 114.9Z" stroke="#1B3544" stroke-width="4" stroke-linecap="round" stroke-linejoin="round"/>
<path id="Vector_24" d="M12.5996 90.81C13.5402 89.9498 14.6429 89.2857 15.8431 88.8566C17.0434 88.4275 18.3171 88.242 19.5899 88.3109C20.8627 88.3798 22.109 88.7017 23.2559 89.2579C24.4028 89.8141 25.4273 90.5933 26.2696 91.55" stroke="#83ACED" stroke-width="4" stroke-linecap="round" stroke-linejoin="round"/>
<path id="Vector_25" d="M30.1602 110.6L38.5202 120.02" stroke="#1B3544" stroke-width="4" stroke-linecap="round" stroke-linejoin="round"/>
<path id="Vector_26" d="M53.6103 137C53.2493 137.333 52.8255 137.59 52.3637 137.756C51.9019 137.922 51.4115 137.994 50.9213 137.968C50.4312 137.942 49.9512 137.818 49.5097 137.604C49.0682 137.39 48.674 137.089 48.3503 136.72L38.2303 125.32C37.5708 124.571 37.2317 123.592 37.2859 122.596C37.3401 121.599 37.7834 120.663 38.5203 119.99C38.8817 119.66 39.3055 119.405 39.7667 119.24C40.2279 119.076 40.7173 119.005 41.2063 119.032C41.6952 119.059 42.1738 119.183 42.6141 119.397C43.0544 119.612 43.4475 119.912 43.7703 120.28L53.8903 131.68C54.5505 132.426 54.8911 133.402 54.8387 134.397C54.7863 135.392 54.3452 136.327 53.6103 137Z" stroke="#1B3544" stroke-width="4" stroke-linecap="round" stroke-linejoin="round"/>
</g>
<defs>
<clipPath id="clip0_1115_1263">
<rect width="104" height="140" fill="white"/>
</clipPath>
</defs>
</svg>
