<svg width="24" height="24" viewBox="0 0 24 24" fill="none" xmlns="http://www.w3.org/2000/svg">
<g id="uil:telegram-alt">
<path id="Vector" d="M22.2654 2.42815C21.9807 2.1913 21.6371 2.03609 21.2712 1.97904C20.9052 1.92199 20.5307 1.96522 20.1874 2.10415L2.26639 9.33915C1.88325 9.49684 1.5571 9.76731 1.33124 10.1147C1.10537 10.462 0.990452 10.8698 1.00173 11.284C1.01302 11.6982 1.14996 12.0991 1.3944 12.4337C1.63885 12.7682 1.97923 13.0205 2.37039 13.1571L5.99539 14.4181L8.01539 21.1001C8.04308 21.1893 8.08313 21.2741 8.13439 21.3521C8.14239 21.3641 8.15339 21.3721 8.16139 21.3851C8.22032 21.4672 8.29148 21.5397 8.37239 21.6001C8.39498 21.6178 8.41833 21.6345 8.44239 21.6501C8.53711 21.713 8.64199 21.759 8.75239 21.7861L8.76539 21.7871L8.77139 21.7901C8.83822 21.8036 8.90623 21.8103 8.97439 21.8101L8.99239 21.8071C9.09481 21.8054 9.19634 21.7879 9.29339 21.7551C9.31639 21.7471 9.33539 21.7351 9.35739 21.7251C9.42999 21.6954 9.4988 21.6571 9.56239 21.6111C9.61304 21.5681 9.66371 21.5251 9.71439 21.4821L12.4164 18.4991L16.4464 21.6211C16.8011 21.8974 17.2378 22.0477 17.6874 22.0481C18.1586 22.0476 18.6154 21.885 18.981 21.5877C19.3466 21.2904 19.5988 20.8764 19.6954 20.4151L22.9584 4.39815C23.0322 4.0378 23.0067 3.66418 22.8846 3.3172C22.7626 2.97022 22.5485 2.66292 22.2654 2.42815ZM9.37039 14.7361C9.2319 14.8744 9.13728 15.0504 9.09839 15.2421L8.78839 16.7461L8.00439 14.1531L12.0694 12.0361L9.37039 14.7361ZM17.6724 20.0401L12.9094 16.3501C12.7101 16.1964 12.4602 16.1233 12.2094 16.1455C11.9587 16.1678 11.7255 16.2837 11.5564 16.4701L10.6904 17.4251L10.9964 15.9381L18.0794 8.85515C18.2474 8.68606 18.3496 8.4625 18.3673 8.22477C18.3851 7.98703 18.3174 7.75077 18.1763 7.55857C18.0353 7.36638 17.8302 7.23089 17.5981 7.17654C17.366 7.12219 17.1221 7.15255 16.9104 7.26215L6.74539 12.5541L3.02039 11.1911L20.9994 4.00015L17.6724 20.0401Z" fill="#8C99A8"/>
</g>
</svg>
