<svg width="22" height="24" viewBox="0 0 22 24" fill="none" xmlns="http://www.w3.org/2000/svg">
<g id="WhatsApp Inc. svg" clip-path="url(#clip0_518_1645)">
<g id="Group">
<g id="Group_2">
<path id="Vector" d="M11.0722 0.0668945C5.09142 0.0668945 0.221018 5.32643 0.210023 11.7851C0.210023 13.8509 0.70476 15.8692 1.66125 17.6501L0.12207 23.7289L5.883 22.1023C7.46615 23.0403 9.2582 23.527 11.0722 23.527C17.053 23.527 21.9234 18.2675 21.9344 11.797C21.9344 8.66261 20.802 5.71822 18.7571 3.49806C16.7012 1.28977 13.9747 0.0668945 11.0722 0.0668945ZM11.0722 21.5443C9.4451 21.5443 7.86194 21.0694 6.47668 20.1908L6.14686 19.9771L2.72768 20.9388L3.64019 17.3414L3.42031 16.9734C2.51879 15.4181 2.03505 13.6253 2.04604 11.7851C2.04604 6.40683 6.09189 2.03774 11.0722 2.03774C13.4799 2.03774 15.7447 3.05877 17.4488 4.89902C19.1529 6.73926 20.0874 9.18501 20.0874 11.797C20.0874 17.1752 16.0416 21.5443 11.0722 21.5443ZM16.0196 14.2427C15.7447 14.1002 14.4144 13.3879 14.1616 13.2929C13.9087 13.1979 13.7328 13.1504 13.5459 13.4354C13.37 13.7322 12.8423 14.3852 12.6884 14.587C12.5345 14.777 12.3695 14.8126 12.1057 14.6582C11.8308 14.5158 10.9623 14.2071 9.92884 13.2098C9.12627 12.4381 8.57656 11.4764 8.42264 11.1796C8.26873 10.8828 8.40066 10.7284 8.54358 10.586C8.66451 10.4554 8.81843 10.2417 8.95036 10.0754C9.08229 9.90923 9.12627 9.77863 9.22522 9.58867C9.31317 9.39871 9.26919 9.22062 9.20323 9.07815C9.13726 8.93568 8.58756 7.48723 8.36767 6.90548C8.14779 6.3356 7.92791 6.40683 7.752 6.40683C7.59808 6.39496 7.41118 6.39496 7.23528 6.39496C7.05937 6.39496 6.76253 6.46619 6.50966 6.76301C6.2568 7.05982 5.56417 7.7603 5.56417 9.20875C5.56417 10.6453 6.53165 12.0463 6.67458 12.2362C6.80651 12.4262 8.58756 15.3943 11.3141 16.6647C11.9628 16.9615 12.4685 17.1515 12.8643 17.2821C13.5129 17.5077 14.1066 17.472 14.5684 17.4008C15.0851 17.3177 16.1735 16.6884 16.4044 16.0117C16.6353 15.3231 16.6353 14.7414 16.5583 14.6226C16.4704 14.4683 16.2944 14.397 16.0196 14.2427Z" fill="#2355D0"/>
</g>
</g>
</g>
<defs>
<clipPath id="clip0_518_1645">
<rect width="22" height="24" fill="white"/>
</clipPath>
</defs>
</svg>
