<svg width="262" height="262" viewBox="0 0 262 262" fill="none" xmlns="http://www.w3.org/2000/svg">
<g clip-path="url(#clip0_1186_3781)">
<path d="M156.264 156.264C135.679 177.505 134.181 203.986 132.404 262C186.488 262 223.823 261.813 243.099 243.099C261.813 223.823 262 184.71 262 132.404C203.986 134.275 177.505 135.679 156.264 156.264ZM0 132.404C0 184.71 0.187143 223.823 18.9014 243.099C38.1771 261.813 75.5121 262 129.596 262C127.725 203.986 126.321 177.505 105.736 156.264C84.495 135.679 58.0143 134.181 0 132.404ZM129.596 0C75.6057 0 38.1771 0.187143 18.9014 18.9014C0.187143 38.1771 0 77.29 0 129.596C58.0143 127.725 84.495 126.321 105.736 105.736C126.321 84.495 127.819 58.0143 129.596 0ZM156.264 105.736C135.679 84.495 134.181 58.0143 132.404 0C186.488 0 223.823 0.187143 243.099 18.9014C261.813 38.1771 262 77.29 262 129.596C203.986 127.725 177.505 126.321 156.264 105.736Z" fill="#2C3036"/>
<path d="M262 132.404V129.596C203.986 127.725 177.505 126.321 156.264 105.736C135.679 84.495 134.181 58.0143 132.404 0H129.596C127.725 58.0143 126.321 84.495 105.736 105.736C84.495 126.321 58.0143 127.819 0 129.596V132.404C58.0143 134.275 84.495 135.679 105.736 156.264C126.321 177.505 127.819 203.986 129.596 262H132.404C134.275 203.986 135.679 177.505 156.264 156.264C177.505 135.679 203.986 134.181 262 132.404Z" fill="white"/>
</g>
<defs>
<clipPath id="clip0_1186_3781">
<rect width="262" height="262" fill="white"/>
</clipPath>
</defs>
</svg>
