<svg width="36" height="49" viewBox="0 0 36 49" fill="none" xmlns="http://www.w3.org/2000/svg">
<path id="Shape" d="M10.6204 0.548277C13.0637 0.205057 15.1166 1.73642 16.0881 3.72715L18.4793 8.6268C19.806 11.3452 19.0446 14.5341 17.0324 16.5415C15.8456 17.7254 14.6522 19.0784 13.9592 20.2721C13.9215 20.3371 13.8984 20.4338 13.9197 20.5518C14.5591 24.1056 16.9106 27.618 19.0075 30.1357C19.195 30.3609 19.5246 30.4714 19.8654 30.3623L24.5778 28.8534C27.1835 28.019 30.0157 29.0221 31.5624 31.3271L34.973 36.4097C35.8982 37.7885 36.3654 39.6598 35.6567 41.4583C35.0236 43.0648 33.7987 45.3834 31.5715 46.9241C29.2602 48.523 26.0937 49.1303 21.9513 47.6746C17.322 46.0478 12.9482 41.9665 9.32197 36.7462C5.67404 31.4946 2.67169 24.9339 0.85054 18.0932C-0.869237 11.6333 0.170187 7.2869 2.61377 4.48608C4.97139 1.78379 8.35012 0.867182 10.6204 0.548277ZM13.4375 5.08531C12.8966 3.97716 11.9297 3.42939 11.0229 3.55676C9.00649 3.84001 6.4813 4.60943 4.82324 6.50989C3.25114 8.31182 2.16313 11.4849 3.70968 17.2941C5.44559 23.8146 8.30485 30.0452 11.7364 34.9853C15.1897 39.9566 19.1133 43.4671 22.9127 44.8022C26.2965 45.9913 28.4723 45.4041 29.9132 44.4073C31.4383 43.3524 32.3755 41.6744 32.9086 40.3215C33.153 39.7013 33.048 38.9007 32.5309 38.1301L29.1204 33.0475C28.3102 31.8401 26.8266 31.3147 25.4617 31.7518L20.7494 33.2607C19.3415 33.7115 17.755 33.3097 16.7532 32.107C14.571 29.4868 11.7908 25.4686 11.0052 21.1024C10.8617 20.3051 10.9856 19.4546 11.4121 18.7197C12.3102 17.1728 13.733 15.5948 14.965 14.3658C16.1683 13.1653 16.5092 11.3794 15.8287 9.98496L13.4375 5.08531Z" fill="#5587FF"/>
</svg>
