<svg width="112" height="43" viewBox="0 0 112 43" fill="none" xmlns="http://www.w3.org/2000/svg">
<g id="logo (2) 2" clip-path="url(#clip0_1180_1250)">
<path id="Vector" d="M47.3667 11.672C47.8244 12.0177 48.386 12.2046 48.9633 12.2033C49.5849 12.2223 50.1979 12.0577 50.7233 11.7309C51.2488 11.4041 51.6624 10.9301 51.9108 10.37C52.1952 9.74414 52.336 9.06449 52.3233 8.3792C52.334 7.69661 52.1879 7.02044 51.8959 6.401C51.6357 5.84837 51.2224 5.37894 50.7032 5.0465C50.1726 4.71811 49.5561 4.54881 48.9291 4.5593C48.3739 4.55949 47.833 4.73223 47.3838 5.0528L46.8088 4.5635H46.5331V6.9029H46.8088L47.3838 5.4896C47.8051 5.09714 48.3657 4.88166 48.9462 4.889C49.3344 4.88218 49.7153 4.99369 50.0363 5.2082C50.3653 5.44081 50.619 5.7616 50.7673 6.1322C50.9492 6.58659 51.0371 7.07204 51.0259 7.5602V8.0999H47.7343V8.4338H51.0152V9.1982C51.0261 9.68868 50.9398 10.1766 50.7609 10.6346C50.6165 11.0032 50.3681 11.3238 50.0449 11.5586C49.7273 11.7736 49.349 11.8852 48.9633 11.8778C48.6507 11.8756 48.342 11.809 48.0571 11.6825C47.7737 11.5638 47.5193 11.3869 47.3111 11.1638L46.7725 9.6938H46.4775V12.1151H46.749L47.3667 11.672Z" fill="#1B3544"/>
<path id="Vector_2" d="M55.2861 11.7351L54.6299 11.6301V9.67077H55.4143C55.5896 9.66624 55.7605 9.72446 55.8952 9.83457C56.0359 9.99018 56.1247 10.1844 56.1496 10.3911L56.3313 11.3403C56.3562 11.5639 56.4562 11.773 56.6156 11.9346C56.7996 12.0699 57.0277 12.1342 57.2568 12.1152C57.426 12.1133 57.5928 12.0761 57.7462 12.006C57.9108 11.9335 58.0568 11.8259 58.1737 11.691L58.2101 11.649L57.9963 11.439L57.9536 11.481C57.7762 11.6553 57.5988 11.6616 57.5261 11.5524C57.4622 11.4369 57.4202 11.3109 57.4021 11.1807L57.2482 10.4121C57.2099 10.1248 57.0708 9.85972 56.8549 9.66237C56.624 9.4956 56.3499 9.39591 56.0641 9.37467C56.1784 9.21589 56.2604 9.03692 56.3056 8.84757L56.4788 8.20287C56.5322 8.01807 56.6369 7.99287 56.7117 7.99287C56.7377 7.99272 56.7633 7.99808 56.7869 8.00859C56.8105 8.01911 56.8316 8.03452 56.8485 8.05377C56.8871 8.09734 56.9077 8.15353 56.9062 8.21127C56.9056 8.25651 56.897 8.30129 56.8806 8.34357L56.8635 8.40027L56.9191 8.41917C57.0101 8.45199 57.1064 8.46835 57.2033 8.46747C57.2877 8.47125 57.3719 8.45664 57.4499 8.42469C57.5279 8.39274 57.5977 8.34424 57.6543 8.28267C57.7675 8.15571 57.827 7.99105 57.8206 7.8224C57.8143 7.65375 57.7425 7.49387 57.6201 7.37547C57.4487 7.24019 57.2329 7.17108 57.0133 7.18114C56.7937 7.19119 56.5853 7.27972 56.4275 7.43007C56.2736 7.63121 56.1677 7.86373 56.1175 8.11047L55.9551 8.75517C55.9207 8.92065 55.8475 9.07596 55.7414 9.20877C55.6558 9.29258 55.5415 9.34201 55.4207 9.34737H54.6256V7.66737L55.2818 7.57707V7.26627H52.9307V7.56657L53.5868 7.65687V11.6301L52.9307 11.7288V12.0186H55.2818L55.2861 11.7351Z" fill="#1B3544"/>
<path id="Vector_3" d="M59.6056 11.8064C59.9783 12.0134 60.4001 12.1199 60.8282 12.1151C61.2853 12.1273 61.7325 11.9833 62.0935 11.7077C62.4409 11.4351 62.6738 11.0463 62.7476 10.6157L62.7626 10.5443H62.4291L62.4184 10.5926C62.3564 10.9413 62.1615 11.2536 61.8734 11.4662C61.5726 11.6886 61.2046 11.8054 60.8282 11.798C60.6409 11.8102 60.4536 11.7745 60.2846 11.6942C60.1157 11.614 59.9708 11.492 59.8642 11.3402C59.6271 10.968 59.5115 10.5335 59.5329 10.0949V9.19817C59.5052 8.75347 59.6236 8.31177 59.8706 7.93817C59.981 7.79321 60.1263 7.67743 60.2934 7.60119C60.4605 7.52496 60.6443 7.49066 60.8282 7.50137C61.0705 7.48823 61.3099 7.55799 61.5058 7.69877C61.584 7.75564 61.6472 7.83017 61.6899 7.91605C61.7327 8.00194 61.7539 8.09668 61.7516 8.19227C61.755 8.27593 61.7389 8.35926 61.7045 8.43587C61.6633 8.50658 61.6045 8.56583 61.5335 8.60807L61.5058 8.62697V8.65847C61.5031 8.74191 61.5178 8.82501 61.5491 8.90263C61.5804 8.98025 61.6275 9.05075 61.6876 9.10978C61.7477 9.16882 61.8195 9.21513 61.8985 9.24586C61.9775 9.27659 62.0621 9.29109 62.147 9.28847C62.2306 9.29157 62.3141 9.27769 62.392 9.2477C62.47 9.21772 62.5408 9.17226 62.6001 9.11417C62.7211 8.97826 62.7826 8.80089 62.7711 8.62067C62.7729 8.34992 62.6801 8.08676 62.5082 7.87517C62.3222 7.64961 62.08 7.47525 61.805 7.36907C61.4958 7.24776 61.1654 7.18712 60.8325 7.19057C60.4193 7.18829 60.0122 7.28793 59.6484 7.48037C59.2751 7.67646 58.9649 7.97101 58.7528 8.33087C58.5186 8.73155 58.401 9.18777 58.4129 9.64967C58.4044 10.0988 58.5149 10.5424 58.7335 10.937C58.9372 11.3001 59.239 11.601 59.6056 11.8064Z" fill="#1B3544"/>
<path id="Vector_4" d="M65.4667 11.7349L64.9195 11.6467V7.61051H66.9842V11.6467L66.4371 11.7349V12.0247H68.6557V11.7349L68.0187 11.6446V7.64831L68.6557 7.55801V7.26611H63.248V7.55801L63.885 7.64831V11.6446L63.248 11.7349V12.0247H65.4667V11.7349Z" fill="#1B3544"/>
<path id="Vector_5" d="M70.3867 11.8065C70.7698 12.0146 71.2015 12.121 71.6392 12.1152C72.1082 12.1282 72.5678 11.9846 72.943 11.7078C73.298 11.4395 73.5369 11.0496 73.612 10.6158L73.627 10.5444H73.2935L73.2829 10.5927C73.2152 10.9434 73.0113 11.2544 72.7143 11.46C72.4049 11.6836 72.0297 11.8023 71.6456 11.7981C71.4535 11.8097 71.2615 11.7732 71.0877 11.692C70.9139 11.6108 70.7639 11.4876 70.6517 11.334C70.405 10.9676 70.283 10.5338 70.3033 10.095V9.26757H73.6569V9.20667C73.6577 8.83955 73.5635 8.47825 73.3833 8.15667C73.2113 7.85572 72.9575 7.60776 72.6502 7.44057C72.323 7.26429 71.9546 7.17524 71.5815 7.18227C71.1547 7.17691 70.7341 7.28347 70.3632 7.49097C69.9975 7.69479 69.6959 7.99335 69.4911 8.35407C69.2715 8.74826 69.161 9.19211 69.1705 9.64137C69.161 10.0934 69.2739 10.5398 69.4975 10.935C69.7059 11.3009 70.0137 11.6027 70.3867 11.8065ZM71.5751 7.50357C71.7148 7.49279 71.8549 7.5193 71.9806 7.58029C72.1062 7.64128 72.2128 7.73449 72.289 7.85007C72.4636 8.1784 72.5449 8.54696 72.5241 8.91687H70.3204C70.338 8.54822 70.4651 8.1927 70.6859 7.89417C70.792 7.76451 70.928 7.66147 71.0826 7.59356C71.2372 7.52565 71.406 7.49481 71.5751 7.50357Z" fill="#1B3544"/>
<path id="Vector_6" d="M79.1955 8.3602C79.0201 7.99867 78.7414 7.69514 78.3933 7.48668C78.0452 7.27822 77.6429 7.17384 77.2355 7.1863C76.8924 7.17804 76.5555 7.27734 76.2737 7.4698C76.0636 7.62118 75.8875 7.81348 75.7564 8.0347V7.2766H74.085V7.5664L74.7262 7.6567V14.1793L74.085 14.2675V14.5699H76.6135V14.2675L75.7586 14.1772V11.2729C75.8886 11.4948 76.064 11.6879 76.2737 11.8399C76.5553 12.033 76.8922 12.133 77.2355 12.1255C77.6471 12.1327 78.0527 12.0273 78.4068 11.821C78.7476 11.6135 79.0212 11.3148 79.1955 10.96C79.3876 10.5554 79.4827 10.1128 79.4734 9.6664C79.4843 9.21579 79.3892 8.76878 79.1955 8.3602ZM77.1436 7.5202C77.9558 7.5202 78.3491 8.0683 78.3491 9.2002V10.0969C78.3491 11.2183 77.9558 11.7643 77.1436 11.7643C76.8894 11.7655 76.6415 11.6868 76.4361 11.5396C76.2191 11.3802 76.047 11.1692 75.936 10.9264C75.8141 10.6627 75.7528 10.376 75.7564 10.0864V9.1456C75.7594 8.86526 75.8259 8.58909 75.9509 8.3371C76.0638 8.1018 76.236 7.89869 76.4511 7.747C76.6527 7.60459 76.8953 7.52885 77.1436 7.5307V7.5202Z" fill="#1B3544"/>
<path id="Vector_7" d="M81.0806 7.61051H81.7667V11.6446L81.0378 11.7328V12.0247H83.5301V11.7328L82.8012 11.6446V7.61051H83.4788L84.2803 9.08891H84.6372L84.4919 7.26611H80.076L79.9307 9.08891H80.2876L81.0806 7.61051Z" fill="#1B3544"/>
<path id="Vector_8" d="M87.1657 11.7349L86.6207 11.6467V9.78611H88.7495V11.6467L88.2023 11.7349V12.0247H90.421V11.7349L89.7819 11.6446V7.64831L90.421 7.55801V7.26611H88.2023V7.55591L88.7495 7.64621V9.44381H86.6207V7.64621L87.1657 7.55591V7.26611H84.9492V7.55801L85.5862 7.64831V11.6446L84.9492 11.7349V12.0247H87.1657V11.7349Z" fill="#1B3544"/>
<path id="Vector_9" d="M95.7791 9.64546C95.7869 9.19746 95.6756 8.75521 95.4563 8.36236C95.2515 7.99987 94.949 7.6998 94.5821 7.49506C94.2068 7.29249 93.7856 7.18628 93.3574 7.18628C92.9292 7.18628 92.5079 7.29249 92.1326 7.49506C91.7689 7.70102 91.4695 8.00098 91.267 8.36236C91.0551 8.75875 90.9443 9.1998 90.9443 9.64756C90.9443 10.0953 91.0551 10.5364 91.267 10.9328C91.4703 11.298 91.773 11.6004 92.1412 11.8064C92.5165 12.0089 92.9377 12.1151 93.3659 12.1151C93.7941 12.1151 94.2154 12.0089 94.5907 11.8064C94.9589 11.6004 95.2615 11.298 95.4649 10.9328C95.6812 10.5376 95.7894 10.094 95.7791 9.64546ZM93.3574 11.798C93.1698 11.8099 92.9823 11.7741 92.8131 11.6939C92.6438 11.6137 92.4985 11.4918 92.3913 11.3402C92.1542 10.968 92.0385 10.5334 92.06 10.0949V9.19816C92.0376 8.7608 92.1533 8.32734 92.3913 7.95706C92.5077 7.81694 92.6545 7.70403 92.8208 7.62649C92.9872 7.54895 93.169 7.50872 93.3531 7.50872C93.5372 7.50872 93.719 7.54895 93.8854 7.62649C94.0518 7.70403 94.1985 7.81694 94.3149 7.95706C94.5529 8.32734 94.6686 8.7608 94.6462 9.19816V10.0949C94.6677 10.5334 94.5521 10.968 94.3149 11.3402C94.2085 11.4906 94.0646 11.6116 93.8969 11.6918C93.7293 11.7719 93.5435 11.8085 93.3574 11.798Z" fill="#1B3544"/>
<path id="Vector_10" d="M49.0707 23.7113L48.2307 23.5769V20.4269H49.4319C49.4238 21.0917 49.57 21.7496 49.8594 22.3505C50.1329 22.9066 50.5584 23.3771 51.0884 23.7092C51.6267 24.0362 52.2489 24.2052 52.8817 24.1964C53.5162 24.2065 54.14 24.035 54.6771 23.7029C55.2051 23.3679 55.6288 22.8963 55.9018 22.34C56.1919 21.7225 56.342 21.0504 56.342 20.3702C56.342 19.6901 56.1919 19.018 55.9018 18.4004C55.6288 17.8446 55.2032 17.3747 54.6728 17.0438C54.283 16.8014 53.8466 16.6406 53.3907 16.5714C52.9348 16.5022 52.4692 16.526 52.0231 16.6415C51.577 16.757 51.16 16.9616 50.798 17.2426C50.436 17.5235 50.1369 17.8748 49.9192 18.2744C49.617 18.8326 49.4475 19.4508 49.4234 20.0825H48.22V17.1614L49.06 17.0354V16.7267H46.2686V17.0354L47.1064 17.1614V23.5769L46.2686 23.7113V24.02H49.0707V23.7113ZM51.7553 17.2181C52.0901 16.9937 52.486 16.8736 52.8913 16.8736C53.2966 16.8736 53.6925 16.9937 54.0273 17.2181C54.3765 17.4658 54.6488 17.8039 54.8139 18.1946C55.0131 18.6647 55.1107 19.1703 55.1003 19.6793V21.059C55.1106 21.5704 55.0146 22.0785 54.8182 22.5521C54.6561 22.9423 54.3858 23.2799 54.038 23.5265C53.6981 23.747 53.2997 23.8645 52.8924 23.8645C52.485 23.8645 52.0867 23.747 51.7467 23.5265C51.3978 23.2806 51.1266 22.9428 50.9644 22.5521C50.768 22.0785 50.672 21.5704 50.6823 21.059V19.6793C50.6717 19.1703 50.7693 18.6646 50.9687 18.1946C51.1338 17.8039 51.4061 17.4658 51.7553 17.2181Z" fill="#1B3544"/>
<path id="Vector_11" d="M59.1039 23.8099C59.3848 24.0026 59.7211 24.102 60.0636 24.0934C60.4754 24.1022 60.8814 23.9967 61.2349 23.7889C61.5768 23.5826 61.8507 23.2836 62.0236 22.9279C62.2082 22.5208 62.3036 22.08 62.3036 21.6343C62.3036 21.1886 62.2082 20.7479 62.0236 20.3407C61.8497 19.9841 61.5761 19.6833 61.2349 19.4734C60.8805 19.2661 60.4738 19.1613 60.0615 19.171C59.7188 19.1631 59.3824 19.2632 59.1018 19.4566C58.8908 19.6104 58.7146 19.8056 58.5845 20.0299V19.2613H56.9131V19.5532L57.5543 19.6414V26.164L56.9131 26.2543V26.5399H59.4416V26.248L58.5867 26.1577V23.2576C58.7198 23.4739 58.8957 23.6617 59.1039 23.8099ZM59.9739 19.5091C60.7839 19.5091 61.1793 20.0572 61.1793 21.1891V22.0837C61.1793 23.2072 60.7839 23.7637 59.9739 23.7637C59.7192 23.7659 59.4708 23.6862 59.2664 23.5369C59.0489 23.3789 58.8766 23.1684 58.7662 22.9258C58.6442 22.6622 58.5822 22.3755 58.5845 22.0858V21.1324C58.5891 20.8523 58.6555 20.5765 58.779 20.3239C58.8926 20.089 59.0646 19.8861 59.2792 19.7338C59.4813 19.5905 59.7246 19.514 59.9739 19.5154V19.5091Z" fill="#1B3544"/>
<path id="Vector_12" d="M65.037 23.7217L64.4898 23.6314V23.4676L66.6742 20.3302V23.6314L66.1271 23.7217V24.0115H68.3457V23.7196L67.7087 23.6293V19.633L68.3457 19.5427V19.2529H66.1271V19.5427L66.6742 19.633V19.7422L64.4898 22.8712V19.633L65.037 19.5427V19.2529H62.8184V19.5427L63.4574 19.633V23.6293L62.8184 23.7196V24.0115H65.037V23.7217Z" fill="#1B3544"/>
<path id="Vector_13" d="M69.6513 22.3189C69.6112 22.5655 69.5438 22.807 69.4504 23.0392C69.3768 23.2167 69.267 23.3775 69.1277 23.5117C69.035 23.6052 68.9098 23.6607 68.7771 23.6671H68.4287L68.2812 25.4878H68.6403L69.4333 24.0178H72.2953L73.0968 25.4878H73.4538L73.3084 23.6671H72.6672V19.633L73.3084 19.5427V19.2529H69.0379V19.5301L69.8629 19.9123L69.7945 20.9476C69.7497 21.5692 69.7026 22.0312 69.6513 22.3189ZM70.237 19.5889H71.6327V23.6587H69.4654C69.5212 23.6005 69.5713 23.5373 69.615 23.4697C69.6891 23.3605 69.7507 23.2436 69.7988 23.1211C69.8957 22.8732 69.9673 22.6164 70.0125 22.3546C70.0858 21.8884 70.1351 21.4188 70.16 20.9476L70.237 19.5889Z" fill="#1B3544"/>
<path id="Vector_14" d="M76.9464 19.5427L77.4936 19.633V19.7422L75.3091 22.8712V19.633L75.8563 19.5427V19.2529H73.6377V19.5427L74.2746 19.633V23.6293L73.6377 23.7196V24.0115H75.8563V23.7217L75.3091 23.6314V23.4676L77.4936 20.3302V23.6314L76.9464 23.7217V24.0115H79.165V23.7196L78.5259 23.6293V19.633L79.165 19.5427V19.2529H76.9464V19.5427Z" fill="#1B3544"/>
<path id="Vector_15" d="M82.504 19.5427L83.049 19.6309V21.6679C82.9001 21.7468 82.7423 21.8081 82.5788 21.8506C82.3456 21.913 82.1045 21.9427 81.8628 21.9388C81.7445 21.95 81.6253 21.9344 81.5141 21.8933C81.403 21.8521 81.3029 21.7865 81.2216 21.7015C81.0758 21.4882 81.0066 21.2333 81.0249 20.977V19.6309L81.5721 19.5427V19.2529H79.3428V19.5427L79.984 19.633V20.977C79.9671 21.1712 79.9981 21.3665 80.0744 21.5463C80.1507 21.7262 80.27 21.8853 80.4222 22.0102C80.7768 22.2397 81.1973 22.3509 81.6212 22.3273C82.1111 22.3334 82.5966 22.236 83.0448 22.0417V23.6272L82.1342 23.7175V24.0199H84.7162V23.728L84.075 23.6377V19.6477L84.7162 19.5574V19.2529H82.504V19.5427Z" fill="#1B3544"/>
<path id="Vector_16" d="M89.7093 21.2523V21.1914C89.7102 20.8245 89.6168 20.4634 89.4378 20.1414C89.2642 19.8421 89.0098 19.5957 88.7026 19.4295C88.3751 19.254 88.0069 19.165 87.6339 19.1712C87.2072 19.1671 86.787 19.2736 86.4156 19.4799C86.0515 19.685 85.7509 19.9833 85.5456 20.343C85.3322 20.7408 85.2207 21.1838 85.2207 21.6335C85.2207 22.0832 85.3322 22.5261 85.5456 22.9239C85.7547 23.2887 86.0625 23.5896 86.4348 23.7933C86.8178 23.9995 87.2485 24.1051 87.6852 24.0999C88.1538 24.1127 88.6132 23.9699 88.989 23.6946C89.3444 23.4258 89.5834 23.035 89.658 22.6005L89.673 22.5312H89.3438L89.3331 22.5795C89.2655 22.9302 89.0616 23.2413 88.7646 23.4468C88.4545 23.669 88.0796 23.7869 87.6959 23.7828C87.504 23.7943 87.3123 23.7579 87.1386 23.6771C86.9648 23.5964 86.8146 23.4738 86.702 23.3208C86.455 22.9538 86.333 22.5192 86.3536 22.0797V21.2523H89.7093ZM87.6339 19.4883C87.7742 19.4782 87.9147 19.5056 88.0404 19.5678C88.1662 19.6299 88.2724 19.7244 88.3478 19.8411C88.5226 20.1702 88.6045 20.5393 88.585 20.91H86.3685C86.3861 20.5414 86.5132 20.1858 86.734 19.8873C86.8403 19.7546 86.9776 19.6491 87.1342 19.5796C87.2909 19.5101 87.4623 19.4788 87.6339 19.4883Z" fill="#1B3544"/>
<path id="Vector_17" d="M93.4688 20.597L93.4431 20.6138V20.6474C93.4401 20.7309 93.4547 20.8141 93.4858 20.8919C93.517 20.9696 93.5641 21.0403 93.6243 21.0994C93.6844 21.1585 93.7563 21.2048 93.8355 21.2354C93.9146 21.266 93.9993 21.2803 94.0843 21.2774C94.168 21.2807 94.2515 21.267 94.3295 21.237C94.4075 21.207 94.4783 21.1614 94.5375 21.1031C94.5981 21.0357 94.6447 20.9573 94.6744 20.8722C94.7041 20.7872 94.7164 20.6972 94.7106 20.6075C94.7118 20.3371 94.6183 20.0746 94.4456 19.8641C94.2603 19.6377 94.0178 19.4632 93.7423 19.358C93.3961 19.2223 93.0241 19.1618 92.6519 19.1806C92.2796 19.1995 91.9159 19.2972 91.5857 19.4672C91.2154 19.6617 90.9064 19.9522 90.6923 20.3072C90.4578 20.7086 90.3395 21.1654 90.3503 21.6281C90.3428 22.0774 90.454 22.5209 90.673 22.9154C90.8776 23.2796 91.18 23.5818 91.5472 23.789C91.9212 23.9947 92.3435 24.1004 92.772 24.0956C93.2279 24.1072 93.6741 23.964 94.0352 23.6903C94.3836 23.4174 94.6173 23.0278 94.6914 22.5962L94.7042 22.5269H94.3707V22.5752C94.3074 22.9233 94.1119 23.2349 93.8236 23.4467C93.5234 23.6687 93.1562 23.7856 92.7805 23.7785C92.5929 23.7907 92.4054 23.7549 92.2361 23.6747C92.0667 23.5944 91.9215 23.4725 91.8144 23.3207C91.577 22.9486 91.4614 22.514 91.4831 22.0754V21.185C91.456 20.7403 91.5743 20.2988 91.8208 19.925C91.93 19.7824 92.0729 19.6681 92.2371 19.592C92.4014 19.5159 92.582 19.4803 92.7634 19.4882C93.0055 19.4766 93.2444 19.5462 93.441 19.6856C93.519 19.7431 93.582 19.8181 93.6247 19.9042C93.6674 19.9904 93.6887 20.0853 93.6868 20.1812C93.6894 20.2643 93.6726 20.3469 93.6376 20.4227C93.5984 20.4947 93.5401 20.5549 93.4688 20.597Z" fill="#1B3544"/>
<path id="Vector_18" d="M100.186 23.4615C100.009 23.6358 99.8314 23.6421 99.7587 23.5329C99.698 23.4162 99.6569 23.2907 99.6369 23.1612L99.483 22.3905C99.4434 22.1065 99.3052 21.8447 99.0919 21.6492C98.8612 21.4804 98.5859 21.3805 98.2989 21.3615C98.4106 21.2012 98.4904 21.0217 98.534 20.8323L98.7071 20.1876C98.7606 20.0028 98.8653 19.9776 98.9401 19.9776C98.9662 19.9767 98.9921 19.9817 99.0158 19.9923C99.0395 20.0028 99.0604 20.0186 99.0769 20.0385C99.116 20.0809 99.1366 20.1367 99.1346 20.1939C99.1338 20.2398 99.1252 20.2852 99.109 20.3283L99.0919 20.385L99.1474 20.4039C99.2387 20.4357 99.3349 20.452 99.4317 20.4522C99.5163 20.4557 99.6006 20.4407 99.6786 20.4084C99.7565 20.3761 99.8263 20.3272 99.8827 20.2653C99.9957 20.1386 100.055 19.9743 100.049 19.806C100.042 19.6377 99.9708 19.4782 99.8485 19.3602C99.7739 19.2934 99.6866 19.242 99.5915 19.2088C99.4965 19.1756 99.3956 19.1614 99.2949 19.167C99.1791 19.1583 99.0628 19.1756 98.9547 19.2174C98.8466 19.2592 98.7495 19.3245 98.6708 19.4085C98.5172 19.6105 98.4113 19.8437 98.3609 20.091L98.1963 20.7357C98.1629 20.9008 98.0896 21.0557 97.9826 21.1872C97.897 21.271 97.7827 21.3204 97.662 21.3258H96.8668V19.6458L97.523 19.5576V19.2531H95.1719V19.5534L95.8281 19.6416V23.6211L95.1719 23.7198V24.0201H97.523V23.7282L96.8668 23.6295V21.6639H97.6513C97.8263 21.6603 97.9969 21.7184 98.1322 21.8277C98.2728 21.9841 98.3615 22.179 98.3865 22.3863L98.5682 23.3355C98.5926 23.5586 98.6927 23.7672 98.8525 23.9277C99.0365 24.063 99.2647 24.1273 99.4937 24.1083C99.6626 24.1061 99.8293 24.0697 99.9832 24.0012C100.147 23.9279 100.293 23.8205 100.411 23.6862L100.447 23.6421L100.233 23.4321L100.186 23.4615Z" fill="#1B3544"/>
<path id="Vector_19" d="M103.814 19.5427L104.361 19.633V19.7422L102.176 22.8712V19.633L102.724 19.5427V19.2529H100.505V19.5427L101.144 19.633V23.6293L100.505 23.7196V24.0115H102.724V23.7217L102.176 23.6314V23.4676L104.361 20.3302V23.6314L103.814 23.7217V24.0115H106.032V23.7196L105.395 23.6293V19.633L106.032 19.5427V19.2529H103.814V19.5427Z" fill="#1B3544"/>
<path id="Vector_20" d="M111.93 19.5427V19.2529H109.711V19.5427L110.258 19.633V19.7422L108.074 22.8712V19.633L108.621 19.5427V19.2529H106.402V19.5427L107.041 19.633V23.6293L106.402 23.7196V24.0115H108.621V23.7217L108.074 23.6314V23.4676L110.258 20.3302V23.6314L109.711 23.7217V24.0115H111.93V23.7196L111.291 23.6293V19.633L111.93 19.5427Z" fill="#1B3544"/>
<path id="Vector_21" d="M108.016 18.56C108.384 18.7334 108.79 18.8169 109.198 18.8036C109.603 18.8163 110.004 18.7327 110.369 18.56C110.519 18.4915 110.645 18.3819 110.733 18.2444C110.82 18.1069 110.865 17.9474 110.863 17.7851C110.863 17.6287 110.802 17.4783 110.692 17.3651C110.637 17.3074 110.571 17.2616 110.498 17.2309C110.424 17.2001 110.344 17.185 110.264 17.1866C110.181 17.1851 110.099 17.1999 110.022 17.2302C109.945 17.2605 109.875 17.3057 109.816 17.363C109.757 17.417 109.71 17.482 109.679 17.5542C109.647 17.6264 109.63 17.7043 109.63 17.783V17.8208L109.662 17.8355C109.83 17.9216 109.912 18.0182 109.912 18.1316C109.912 18.245 109.852 18.3038 109.73 18.3773C109.567 18.4627 109.383 18.5026 109.198 18.4928C109.009 18.5032 108.82 18.4648 108.651 18.3815C108.602 18.3607 108.561 18.3275 108.53 18.2854C108.499 18.2433 108.48 18.1938 108.475 18.1421C108.478 18.0846 108.5 18.0296 108.539 17.9867C108.594 17.9244 108.66 17.873 108.734 17.8355L108.766 17.8187V17.783C108.765 17.7038 108.748 17.6255 108.715 17.5531C108.682 17.4808 108.634 17.4161 108.574 17.363C108.456 17.2491 108.297 17.1857 108.131 17.1866C108.051 17.1857 107.972 17.201 107.898 17.2318C107.825 17.2625 107.759 17.3079 107.704 17.3651C107.648 17.4203 107.603 17.4858 107.573 17.5579C107.543 17.63 107.528 17.7072 107.528 17.7851C107.525 17.9467 107.57 18.1057 107.656 18.2431C107.742 18.3806 107.867 18.4906 108.016 18.56Z" fill="#1B3544"/>
<path id="Vector_22" d="M52.5141 35.6539V29.146L53.3626 29.0116V28.7134H50.5434V29.0116L51.3898 29.146V35.6539H48.2307V29.146L49.0707 29.0116V28.7134H46.2686V29.0116L47.1064 29.146V35.5636L46.2686 35.6875V35.9962H52.1144L53.0612 37.966H53.4395L53.2942 35.6539H52.5141Z" fill="#1B3544"/>
<path id="Vector_23" d="M58.1841 33.239V33.1781C58.1849 32.811 58.0907 32.4497 57.9105 32.1281C57.7385 31.8272 57.4847 31.5792 57.1774 31.412C56.8502 31.2357 56.4817 31.1467 56.1087 31.1537C55.6815 31.1486 55.2605 31.2544 54.8882 31.4603C54.524 31.6662 54.2234 31.9652 54.0183 32.3255C53.8049 32.7233 53.6934 33.1663 53.6934 33.616C53.6934 34.0657 53.8049 34.5086 54.0183 34.9064C54.2336 35.2755 54.5497 35.5782 54.931 35.78C55.314 35.9881 55.7457 36.0945 56.1835 36.0887C56.6524 36.1014 57.112 35.9578 57.4873 35.6813C57.8423 35.4131 58.0812 35.0231 58.1563 34.5893L58.1713 34.5179H57.8357V34.5662C57.7672 34.9166 57.5635 35.2274 57.2671 35.4335C56.9577 35.6572 56.5826 35.7759 56.1984 35.7716C56.0061 35.783 55.8139 35.7464 55.6397 35.6653C55.4656 35.5841 55.3152 35.4611 55.2024 35.3075C54.9554 34.9405 54.8334 34.5059 54.854 34.0664V33.239H58.1841ZM56.1087 31.475C56.249 31.4649 56.3895 31.4923 56.5152 31.5545C56.6409 31.6166 56.7472 31.7111 56.8226 31.8278C56.9962 32.1565 57.0774 32.5248 57.0577 32.8946H54.8433C54.8595 32.5257 54.9867 32.1698 55.2088 31.8719C55.3153 31.7396 55.4527 31.6344 55.6093 31.5654C55.766 31.4963 55.9373 31.4653 56.1087 31.475Z" fill="#1B3544"/>
<path id="Vector_24" d="M61.9271 31.5276L62.4722 31.6179V33.4155H60.3433V31.6179L60.8905 31.5276V31.2378H58.6719V31.5297L59.311 31.62V35.6163L58.6719 35.7066V35.9964H60.8905V35.7066L60.3433 35.6163V33.7578H62.4722V35.6163L61.9271 35.7066V35.9964H64.1436V35.7066L63.5067 35.6163V31.62L64.1436 31.5297V31.2378H61.9271V31.5276Z" fill="#1B3544"/>
<path id="Vector_25" d="M64.6014 31.2378L64.4561 33.0585H64.813L65.606 31.5822H66.2921V35.6142L65.5632 35.7045V35.9964H68.0554V35.7045L67.3266 35.6142V31.5822H68.002L68.8035 33.0585H69.1626L69.0151 31.2378H64.6014Z" fill="#1B3544"/>
<path id="Vector_26" d="M73.7408 31.4667C73.3879 31.2571 72.9818 31.1501 72.5695 31.158C72.2263 31.1494 71.8893 31.2487 71.6076 31.4415C71.3977 31.5904 71.2215 31.7807 71.0904 32.0001V31.242H69.4189V31.5318L70.0602 31.6221V38.1447L69.4189 38.2329V38.5248H71.9454V38.2308L71.0904 38.1426V35.2446C71.2203 35.463 71.395 35.6525 71.6034 35.8011C71.8848 35.9946 72.2218 36.0946 72.5652 36.0867C72.9786 36.0947 73.3859 35.9885 73.7408 35.7801C74.0826 35.5737 74.3565 35.2748 74.5295 34.9191C74.7141 34.5116 74.8095 34.0705 74.8095 33.6244C74.8095 33.1784 74.7141 32.7373 74.5295 32.3298C74.3543 31.975 74.0809 31.6759 73.7408 31.4667ZM72.4776 31.5024C73.2898 31.5024 73.6831 32.0505 73.6831 33.1824V34.0791C73.6831 35.2005 73.2898 35.7465 72.4776 35.7465C72.2233 35.7482 71.9752 35.6694 71.7701 35.5218C71.5531 35.3624 71.3809 35.1514 71.2699 34.9086C71.1481 34.6449 71.0868 34.3581 71.0904 34.0686V33.111C71.0935 32.8309 71.1592 32.5549 71.2828 32.3025C71.3963 32.0676 71.5683 31.8646 71.7829 31.7124C71.986 31.5719 72.2292 31.4984 72.4776 31.5024Z" fill="#1B3544"/>
<path id="Vector_27" d="M25.6378 21.2375L20.5337 25.5614L18.999 25.2233L24.4943 21.0254L25.4796 21.2081L25.61 21.2333L25.6378 21.2375Z" fill="#2355D0"/>
<path id="Vector_28" d="M24.4943 21.0254L18.999 25.2233L20.5337 25.5614L25.6378 21.2375L25.61 21.2333L25.4796 21.2081L24.4943 21.0254Z" fill="#2355D0"/>
<path id="Vector_29" d="M25.6378 21.2375L20.5337 25.5614L18.999 25.2233L24.4943 21.0254L25.4796 21.2081L25.61 21.2333L25.6378 21.2375Z" fill="#2355D0"/>
<path id="Vector_30" d="M24.4943 21.0254L18.999 25.2233L20.5337 25.5614L25.6378 21.2375L25.61 21.2333L25.4796 21.2081L24.4943 21.0254Z" fill="#2355D0"/>
<path id="Vector_31" d="M25.6378 21.2375L20.5337 25.5614L18.999 25.2233L24.4943 21.0254L25.4796 21.2081L25.61 21.2333L25.6378 21.2375Z" fill="#2355D0"/>
<path id="Vector_32" d="M24.4943 21.0254L18.999 25.2233L20.5337 25.5614L25.6378 21.2375L25.61 21.2333L25.4796 21.2081L24.4943 21.0254Z" fill="#2355D0"/>
<path id="Vector_33" d="M29.8082 17.7074L26.5593 20.4584L25.5312 20.2337L29.028 17.5625L29.6586 17.6801L29.7975 17.7053L29.8082 17.7074Z" fill="#2355D0"/>
<path id="Vector_34" d="M29.028 17.5625L25.5312 20.2337L26.5593 20.4584L29.8082 17.7074L29.7975 17.7053L29.6586 17.6801L29.028 17.5625Z" fill="#2355D0"/>
<path id="Vector_35" d="M29.8082 17.7074L26.5593 20.4584L25.5312 20.2337L29.028 17.5625L29.6586 17.6801L29.7975 17.7053L29.8082 17.7074Z" fill="#2355D0"/>
<path id="Vector_36" d="M29.028 17.5625L25.5312 20.2337L26.5593 20.4584L29.8082 17.7074L29.7975 17.7053L29.6586 17.6801L29.028 17.5625Z" fill="#2355D0"/>
<path id="Vector_37" d="M25.6378 21.2375L20.5337 25.5614L18.999 25.2233L24.4943 21.0254L25.4796 21.2081L25.61 21.2333L25.6378 21.2375Z" fill="#2355D0"/>
<path id="Vector_38" d="M24.4943 21.0254L18.999 25.2233L20.5337 25.5614L25.6378 21.2375L25.61 21.2333L25.4796 21.2081L24.4943 21.0254Z" fill="#2355D0"/>
<path id="Vector_39" d="M25.61 21.2333L25.6378 21.2375L20.5337 25.5614L18.999 25.2233L24.4943 21.0254L25.4796 21.2081L25.61 21.2333Z" fill="#2355D0"/>
<path id="Vector_40" d="M24.4943 21.0254L18.999 25.2233L20.5337 25.5614L25.6378 21.2375L25.61 21.2333L25.4796 21.2081L24.4943 21.0254Z" fill="#2355D0"/>
<path id="Vector_41" d="M29.7975 17.7053L29.8082 17.7074L26.5593 20.4584L25.5312 20.2337L29.028 17.5625L29.6586 17.6801L29.7975 17.7053Z" fill="#2355D0"/>
<path id="Vector_42" d="M29.028 17.5625L25.5312 20.2337L26.5593 20.4584L29.8082 17.7074L29.7975 17.7053L29.6586 17.6801L29.028 17.5625Z" fill="#2355D0"/>
<path id="Vector_43" d="M32.3814 19.0577V20.1497C32.3762 23.1986 31.6429 26.2038 30.2404 28.9236C28.8379 31.6434 26.8054 34.0018 24.3063 35.8094L18.5631 39.9464L32.3814 19.0577ZM4.59728 27.59C3.5976 25.233 3.08187 22.7052 3.07972 20.1518V6.34427L1.72461 5.38037L17.7402 1.96997L33.7493 5.37617L32.39 6.34007V12.5666L4.59728 27.59Z" fill="#2355D0"/>
<path id="Vector_44" d="M17.7402 3.10809L31.2615 5.98719V11.9113L30.2034 12.4846L5.19581 26.0002C4.54474 24.1159 4.2119 22.1395 4.21047 20.1496V5.98719L17.7402 3.10809ZM30.9921 23.1925C30.179 27.888 27.5431 32.0904 23.6395 34.9147L22.87 35.467L30.9921 23.1925ZM17.7402 0.840088L1.95978 4.20009L0.0703125 4.59909V5.57349L1.95123 6.91119V20.1412C1.95298 23.3663 2.72793 26.5457 4.2133 29.4218C5.69867 32.2978 7.85268 34.7897 10.5008 36.6955L17.7402 41.9203L24.9818 36.7039C27.6282 34.7973 29.7802 32.305 31.2634 29.4289C32.7465 26.5528 33.5191 23.3738 33.5186 20.1496V6.91959L35.4059 5.58189V4.59909L33.5186 4.19799L17.7402 0.840088ZM9.19062 32.7202C7.89972 31.3459 6.82682 29.7884 6.00802 28.1002L31.2828 14.4271V15.8404L29.7097 17.0458L30.4108 17.2012L31.2871 16.4599V18.6775L17.674 39.2575C17.674 39.2575 10.8856 34.4422 10.4731 34.0831L18.8431 26.9935L17.099 26.668L9.19062 32.7202Z" fill="#2355D0"/>
<path id="Vector_45" d="M25.61 21.2333L25.6378 21.2375L20.5337 25.5614L18.999 25.2233L24.4943 21.0254L25.4796 21.2081L25.61 21.2333Z" fill="#2355D0"/>
<path id="Vector_46" d="M24.4943 21.0254L18.999 25.2233L20.5337 25.5614L25.6378 21.2375L25.61 21.2333L25.4796 21.2081L24.4943 21.0254Z" fill="#2355D0"/>
<path id="Vector_47" d="M29.8082 17.7074L26.5593 20.4584L25.5312 20.2337L29.028 17.5625L29.6586 17.6801L29.7975 17.7053L29.8082 17.7074Z" fill="#2355D0"/>
<path id="Vector_48" d="M29.028 17.5625L25.5312 20.2337L26.5593 20.4584L29.8082 17.7074L29.7975 17.7053L29.6586 17.6801L29.028 17.5625Z" fill="#2355D0"/>
<path id="Vector_49" d="M29.8082 17.7074L26.5593 20.4584L25.5312 20.2337L29.028 17.5625L29.6586 17.6801L29.7975 17.7053L29.8082 17.7074Z" fill="#2355D0"/>
<path id="Vector_50" d="M29.028 17.5625L25.5312 20.2337L26.5593 20.4584L29.8082 17.7074L29.7975 17.7053L29.6586 17.6801L29.028 17.5625Z" fill="#2355D0"/>
<path id="Vector_51" d="M25.6378 21.2375L20.5337 25.5614L18.999 25.2233L24.4943 21.0254L25.4796 21.2081L25.61 21.2333L25.6378 21.2375Z" fill="#2355D0"/>
<path id="Vector_52" d="M24.4943 21.0254L18.999 25.2233L20.5337 25.5614L25.6378 21.2375L25.61 21.2333L25.4796 21.2081L24.4943 21.0254Z" fill="#2355D0"/>
<path id="Vector_53" d="M25.6378 21.2375L20.5337 25.5614L18.999 25.2233L24.4943 21.0254L25.4796 21.2081L25.61 21.2333L25.6378 21.2375Z" fill="#2355D0"/>
<path id="Vector_54" d="M24.4943 21.0254L18.999 25.2233L20.5337 25.5614L25.6378 21.2375L25.61 21.2333L25.4796 21.2081L24.4943 21.0254Z" fill="#2355D0"/>
<path id="Vector_55" d="M29.8082 17.7074L26.5593 20.4584L25.5312 20.2337L29.028 17.5625L29.6586 17.6801L29.7975 17.7053L29.8082 17.7074Z" fill="#2355D0"/>
<path id="Vector_56" d="M29.028 17.5625L25.5312 20.2337L26.5593 20.4584L29.8082 17.7074L29.7975 17.7053L29.6586 17.6801L29.028 17.5625Z" fill="#2355D0"/>
<path id="Vector_57" d="M29.8082 17.7074L26.5593 20.4584L25.5312 20.2337L29.028 17.5625L29.6586 17.6801L29.7975 17.7053L29.8082 17.7074Z" fill="#2355D0"/>
<path id="Vector_58" d="M29.028 17.5625L25.5312 20.2337L26.5593 20.4584L29.8082 17.7074L29.7975 17.7053L29.6586 17.6801L29.028 17.5625Z" fill="#2355D0"/>
<path id="Vector_59" d="M25.6378 21.2375L20.5337 25.5614L18.999 25.2233L24.4943 21.0254L25.4796 21.2081L25.61 21.2333L25.6378 21.2375Z" fill="#2355D0"/>
<path id="Vector_60" d="M24.4943 21.0254L18.999 25.2233L20.5337 25.5614L25.6378 21.2375L25.61 21.2333L25.4796 21.2081L24.4943 21.0254Z" fill="#2355D0"/>
<path id="Vector_61" d="M25.6378 21.2375L20.5337 25.5614L18.999 25.2233L24.4943 21.0254L25.4796 21.2081L25.61 21.2333L25.6378 21.2375Z" fill="#2355D0"/>
<path id="Vector_62" d="M24.4943 21.0254L18.999 25.2233L20.5337 25.5614L25.6378 21.2375L25.61 21.2333L25.4796 21.2081L24.4943 21.0254Z" fill="#2355D0"/>
<path id="Vector_63" d="M25.6378 21.2375L20.5337 25.5614L18.999 25.2233L24.4943 21.0254L25.4796 21.2081L25.61 21.2333L25.6378 21.2375Z" fill="#2355D0"/>
<path id="Vector_64" d="M25.6378 21.2375L20.5337 25.5614L18.999 25.2233L24.4943 21.0254L25.4796 21.2081L25.61 21.2333L25.6378 21.2375Z" fill="#2355D0"/>
<path id="Vector_65" d="M25.6378 21.2375L20.5337 25.5614L18.999 25.2233L24.4943 21.0254L25.4796 21.2081L25.61 21.2333L25.6378 21.2375Z" fill="#2355D0"/>
<path id="Vector_66" d="M29.8082 17.7074L26.5593 20.4584L25.5312 20.2337L29.028 17.5625L29.6586 17.6801L29.7975 17.7053L29.8082 17.7074Z" fill="#2355D0"/>
<path id="Vector_67" d="M29.8082 17.7074L26.5593 20.4584L25.5312 20.2337L29.028 17.5625L29.6586 17.6801L29.7975 17.7053L29.8082 17.7074Z" fill="#2355D0"/>
<path id="Vector_68" d="M25.6378 21.2375L20.5337 25.5614L18.999 25.2233L24.4943 21.0254L25.4796 21.2081L25.61 21.2333L25.6378 21.2375Z" fill="#2355D0"/>
<path id="Vector_69" d="M25.61 21.2333L25.6378 21.2375L20.5337 25.5614L18.999 25.2233L24.4943 21.0254L25.4796 21.2081L25.61 21.2333Z" fill="#2355D0"/>
<path id="Vector_70" d="M29.7975 17.7053L29.8082 17.7074L26.5593 20.4584L25.5312 20.2337L29.028 17.5625L29.6586 17.6801L29.7975 17.7053Z" fill="#2355D0"/>
<path id="Vector_71" d="M33.51 4.19799L17.7402 0.840088L1.95978 4.20009L0.0703125 4.59909V5.57349L1.95123 6.91119V20.1412C1.95298 23.3663 2.72793 26.5457 4.2133 29.4218C5.69867 32.2978 7.85268 34.7897 10.5008 36.6955L17.7402 41.9203L24.9818 36.7039C27.6282 34.7973 29.7802 32.305 31.2634 29.4289C32.7465 26.5528 33.5191 23.3738 33.5186 20.1496V6.91959L35.4059 5.58189V4.59909L33.51 4.19799ZM31.2871 18.688L17.674 39.268C17.674 39.268 10.8856 34.4422 10.4731 34.0831L18.8431 26.9935L17.099 26.668L9.19062 32.7202C7.89972 31.3459 6.82682 29.7884 6.00802 28.1002L31.2828 14.4271V15.8404L29.7097 17.0458L30.4108 17.2012L31.2871 16.4599V18.688Z" fill="#2355D0"/>
<path id="Vector_72" d="M25.61 21.2333L25.6378 21.2375L20.5337 25.5614L18.999 25.2233L24.4943 21.0254L25.4796 21.2081L25.61 21.2333Z" fill="#2355D0"/>
<path id="Vector_73" d="M29.8082 17.7074L26.5593 20.4584L25.5312 20.2337L29.028 17.5625L29.6586 17.6801L29.7975 17.7053L29.8082 17.7074Z" fill="#2355D0"/>
<path id="Vector_74" d="M29.8082 17.7074L26.5593 20.4584L25.5312 20.2337L29.028 17.5625L29.6586 17.6801L29.7975 17.7053L29.8082 17.7074Z" fill="#2355D0"/>
<path id="Vector_75" d="M25.6378 21.2375L20.5337 25.5614L18.999 25.2233L24.4943 21.0254L25.4796 21.2081L25.61 21.2333L25.6378 21.2375Z" fill="#2355D0"/>
<path id="Vector_76" d="M25.6378 21.2375L20.5337 25.5614L18.999 25.2233L24.4943 21.0254L25.4796 21.2081L25.61 21.2333L25.6378 21.2375Z" fill="#2355D0"/>
<path id="Vector_77" d="M29.8082 17.7074L26.5593 20.4584L25.5312 20.2337L29.028 17.5625L29.6586 17.6801L29.7975 17.7053L29.8082 17.7074Z" fill="#2355D0"/>
<path id="Vector_78" d="M29.8082 17.7074L26.5593 20.4584L25.5312 20.2337L29.028 17.5625L29.6586 17.6801L29.7975 17.7053L29.8082 17.7074Z" fill="#2355D0"/>
<path id="Vector_79" d="M25.6378 21.2375L20.5337 25.5614L18.999 25.2233L24.4943 21.0254L25.4796 21.2081L25.61 21.2333L25.6378 21.2375Z" fill="#2355D0"/>
<path id="Vector_80" d="M25.6378 21.2375L20.5337 25.5614L18.999 25.2233L24.4943 21.0254L25.4796 21.2081L25.61 21.2333L25.6378 21.2375Z" fill="#2355D0"/>
</g>
<defs>
<clipPath id="clip0_1180_1250">
<rect width="112" height="42" fill="white" transform="translate(0 0.5)"/>
</clipPath>
</defs>
</svg>
