<svg width="72" height="28" viewBox="0 0 72 28" fill="none" xmlns="http://www.w3.org/2000/svg">
<g id="Logo">
<path d="M8.08108 0C9.87687 0 11.5165 0.514742 13 1.54423C14.4835 2.57371 15.6546 3.96254 16.5135 5.71072C17.3919 7.4589 17.8311 9.34305 17.8311 11.3632C17.8311 13.3639 17.3821 15.2383 16.4842 16.9865C15.5863 18.7347 14.3859 20.1332 12.8829 21.1821C11.3994 22.2116 9.82807 22.7263 8.16891 22.7263C7.07582 22.7263 5.95345 22.5321 4.8018 22.1436C3.66967 21.7357 2.72297 21.2501 1.96171 20.6868C1.21997 20.1041 0.849099 19.5796 0.849099 19.1134C0.849099 17.812 0.78078 16.7922 0.644144 16.0541C0.527027 15.316 0.312312 14.811 0 14.539H0.40991C0.663663 14.8498 0.858858 15.2092 0.995495 15.6171C1.15165 16.0055 1.29805 16.4912 1.43468 17.0739C1.61036 17.7343 1.72748 18.1325 1.78604 18.2685C2.29354 19.4145 3.06456 20.3469 4.0991 21.0656C5.13363 21.7843 6.27552 22.1436 7.52477 22.1436C9.22297 22.1436 10.6577 21.6386 11.8288 20.6285C13.0195 19.6185 13.8979 18.2879 14.464 16.6368C15.0495 14.9664 15.3423 13.1696 15.3423 11.2466C15.3423 10.8193 15.3326 10.4988 15.3131 10.2851L11.214 10.256C10.2185 10.256 9.5548 10.3045 9.22297 10.4017C8.89114 10.4988 8.72522 10.7222 8.72522 11.0718C8.72522 11.6351 8.7545 12.0721 8.81306 12.3829C8.89114 12.6743 9.09609 12.82 9.42792 12.82V13.1988H8.28603V6.58481H9.42792V6.96358C9.09609 6.96358 8.89114 7.10926 8.81306 7.40062C8.7545 7.69199 8.72522 8.12903 8.72522 8.71176C8.72522 9.15851 8.9009 9.44017 9.25225 9.55671C9.62312 9.65383 10.0721 9.70239 10.5991 9.70239H15.2838C15.1276 8.05134 14.7372 6.53625 14.1126 5.15713C13.5075 3.75859 12.717 2.65141 11.741 1.83559C10.765 1.00035 9.68168 0.582727 8.49099 0.582727C7.2027 0.582727 6.02177 0.903227 4.9482 1.54423C3.87462 2.18522 3.02552 3.00104 2.4009 3.99168C1.79579 4.98231 1.49324 5.98266 1.49324 6.99272H0.878378V0.495318H1.37613L1.81531 2.68054C2.34234 1.98127 3.25976 1.35969 4.56757 0.815817C5.89489 0.271939 7.06606 0 8.08108 0Z" fill="#1B3544"/>
<path d="M38.7136 0C40.9193 0 42.7249 0.573014 44.1303 1.71904C45.5552 2.84565 46.58 4.26362 47.2046 5.97295C47.8487 7.68228 48.1708 9.43045 48.1708 11.2175C48.1708 13.3347 47.8292 15.2674 47.146 17.0156C46.4628 18.7444 45.4283 20.1332 44.0424 21.1821C42.6761 22.2116 40.9974 22.7263 39.0064 22.7263C37.0349 22.7263 35.327 22.2116 33.8825 21.1821C32.4381 20.1332 31.3352 18.7347 30.574 16.9865C29.8322 15.2383 29.4516 13.3153 29.4321 11.2175C29.4321 10.9067 29.4516 10.4211 29.4906 9.76067H25.7429V20.3954C25.7429 20.7839 25.8405 21.085 26.0357 21.2986C26.2504 21.4929 26.5432 21.59 26.914 21.59C27.2264 21.59 27.568 21.5317 27.9388 21.4152V22.1436H21.351V21.4152C21.7219 21.5317 22.0634 21.59 22.3758 21.59C22.7466 21.59 23.0297 21.4929 23.2249 21.2986C23.4396 21.085 23.5469 20.7839 23.5469 20.3954V2.33091C23.5469 1.94242 23.4396 1.65106 23.2249 1.45682C23.0297 1.24315 22.7466 1.13632 22.3758 1.13632C22.0634 1.13632 21.7219 1.19459 21.351 1.31113V0.582727H27.9388V1.31113C27.568 1.19459 27.2264 1.13632 26.914 1.13632C26.5432 1.13632 26.2504 1.24315 26.0357 1.45682C25.8405 1.65106 25.7429 1.94242 25.7429 2.33091V9.23621H29.5785C29.7932 7.7017 30.2421 6.23517 30.9253 4.83663C31.628 3.43809 32.6235 2.28235 33.9118 1.36941C35.2196 0.456469 36.8202 0 38.7136 0ZM39.0064 22.1436C41.3682 22.1436 43.0762 21.1335 44.1303 19.1134C45.2038 17.0739 45.7309 14.4419 45.7113 11.2175C45.6918 9.547 45.4283 7.89594 44.9208 6.26431C44.4328 4.63267 43.6618 3.28269 42.6077 2.21436C41.5732 1.12661 40.2752 0.582727 38.7136 0.582727C37.1325 0.582727 35.8345 1.17517 34.8195 2.36004C33.8044 3.52549 33.0627 4.95317 32.5942 6.64308C32.1453 8.33299 31.9208 9.96462 31.9208 11.538C31.9208 13.5193 32.1746 15.3063 32.6821 16.8991C33.2091 18.4918 33.9996 19.7641 35.0537 20.7159C36.1273 21.6677 37.4448 22.1436 39.0064 22.1436Z" fill="#1B3544"/>
<path d="M71.5901 28C71.3754 27.7086 71.2095 27.3978 71.0923 27.0676C70.9947 26.7568 70.9069 26.4655 70.8288 26.1935C70.7507 25.9216 70.702 25.7371 70.6824 25.64C70.4677 24.7853 70.214 24.1054 69.9212 23.6004C69.6284 23.0954 69.1013 22.6875 68.3401 22.3767C68.0668 22.2796 67.6862 22.2116 67.1982 22.1727C66.7102 22.1339 65.7342 22.1145 64.2703 22.1145H60.9617C59.4587 22.1339 56.3649 22.1436 51.6802 22.1436V21.4152C52.0511 21.5317 52.3927 21.59 52.705 21.59C53.0758 21.59 53.3589 21.4929 53.5541 21.2986C53.7688 21.085 53.8761 20.7839 53.8761 20.3954V2.33091C53.8761 1.94242 53.7688 1.65106 53.5541 1.45682C53.3589 1.24315 53.0758 1.13632 52.705 1.13632C52.3927 1.13632 52.0511 1.19459 51.6802 1.31113V0.582727H58.268V1.31113C57.8972 1.19459 57.5556 1.13632 57.2432 1.13632C56.8724 1.13632 56.5796 1.24315 56.3649 1.45682C56.1697 1.65106 56.0721 1.94242 56.0721 2.33091V17.8606C56.0721 18.7347 56.1014 19.3854 56.1599 19.8127C56.238 20.24 56.4625 20.6091 56.8333 20.9199C57.2042 21.2307 57.8093 21.3861 58.6487 21.3861H64.3581C65.1974 21.3861 65.8026 21.2307 66.1734 20.9199C66.5443 20.6091 66.759 20.24 66.8176 19.8127C66.8956 19.3854 66.9347 18.7347 66.9347 17.8606V2.33091C66.9347 1.94242 66.8273 1.65106 66.6126 1.45682C66.4174 1.24315 66.1344 1.13632 65.7635 1.13632C65.4707 1.13632 65.1291 1.19459 64.7387 1.31113V0.582727H71.3266V1.31113C70.9362 1.19459 70.5946 1.13632 70.3018 1.13632C69.9309 1.13632 69.6381 1.24315 69.4234 1.45682C69.2282 1.65106 69.1306 1.94242 69.1306 2.33091V20.3954C69.1306 20.7839 69.2282 21.085 69.4234 21.2986C69.6381 21.4929 69.9309 21.59 70.3018 21.59C70.6141 21.59 70.9557 21.5317 71.3266 21.4152V24.3871C71.3266 25.4554 71.3656 26.2615 71.4437 26.8054C71.5413 27.3493 71.7267 27.7475 72 28H71.5901Z" fill="#1B3544"/>
</g>
</svg>
