<svg width="32" height="25" viewBox="0 0 32 25" fill="none" xmlns="http://www.w3.org/2000/svg">
<g id="Mail" clip-path="url(#clip0_444_3803)">
<path id="Shape" d="M27.5789 0C30.0206 0 32 1.95875 32 4.375V20.625C32 23.0412 30.0206 25 27.5789 25H4.42105C1.97937 25 0 23.0412 0 20.625V4.375C0 1.95875 1.97937 0 4.42105 0H27.5789ZM29.8947 7.7925L16.5073 15.0794C16.2265 15.2322 15.8928 15.2492 15.6003 15.1303L15.4927 15.0794L2.10526 7.7925V20.625C2.10526 21.8907 3.14208 22.9167 4.42105 22.9167H27.5789C28.8579 22.9167 29.8947 21.8907 29.8947 20.625V7.7925ZM27.5789 2.08333H4.42105C3.14208 2.08333 2.10526 3.10935 2.10526 4.375V5.41583L16 12.9778L29.8947 5.415V4.375C29.8947 3.10935 28.8579 2.08333 27.5789 2.08333Z" fill="#5587FF"/>
</g>
<defs>
<clipPath id="clip0_444_3803">
<rect width="32" height="25" fill="white"/>
</clipPath>
</defs>
</svg>
