<svg width="48" height="39" viewBox="0 0 48 39" fill="none" xmlns="http://www.w3.org/2000/svg">
<g id="Mail" clip-path="url(#clip0_301_956)">
<path id="Shape" d="M41.3684 0.5C45.0309 0.5 48 3.47731 48 7.15V31.85C48 35.5227 45.0309 38.5 41.3684 38.5H6.63158C2.96906 38.5 0 35.5227 0 31.85V7.15C0 3.47731 2.96906 0.5 6.63158 0.5H41.3684ZM44.8421 12.3446L24.7609 23.4207C24.3398 23.653 23.8393 23.6788 23.4005 23.4981L23.2391 23.4207L3.15789 12.3446V31.85C3.15789 33.7738 4.71312 35.3333 6.63158 35.3333H41.3684C43.2869 35.3333 44.8421 33.7738 44.8421 31.85V12.3446ZM41.3684 3.66667H6.63158C4.71312 3.66667 3.15789 5.22621 3.15789 7.15V8.73207L24 20.2263L44.8421 8.7308V7.15C44.8421 5.22621 43.2869 3.66667 41.3684 3.66667Z" fill="#5587FF"/>
</g>
<defs>
<clipPath id="clip0_301_956">
<rect width="48" height="38" fill="white" transform="translate(0 0.5)"/>
</clipPath>
</defs>
</svg>
