<svg width="83" height="61" viewBox="0 0 83 61" fill="none" xmlns="http://www.w3.org/2000/svg">
<path fill-rule="evenodd" clip-rule="evenodd" d="M6.09722 27.7324C20.2331 18.5301 31.0746 15.0483 39.0507 15.2755C51.0956 15.6193 56.6116 24.4183 56.9762 34.9663C57.2067 41.5944 52.9976 49.86 50.4173 58.73C50.313 59.089 50.6463 59.0663 51.1622 58.6786C51.6759 58.2932 52.181 57.6856 52.283 57.3289C54.8936 48.3551 59.1135 40.022 58.8813 33.3156C58.5113 22.6208 52.9038 13.7131 40.691 13.3634C32.4952 13.1296 21.3233 16.7501 6.79639 26.2066C6.30701 26.5251 5.75451 27.1235 5.56136 27.5448C5.36821 27.9662 5.60784 28.0508 6.09722 27.7324Z" fill="#D12455"/>
<path fill-rule="evenodd" clip-rule="evenodd" d="M52.1885 58.8726C52.2003 58.839 52.2724 58.6203 52.3597 58.4176C52.7156 57.5813 53.5025 56.0075 54.6252 53.9418C58.3995 47.0076 65.9515 34.5545 74.2266 25.4798C74.7039 24.9563 74.9078 24.4872 74.6835 24.4305C74.4592 24.3739 73.8921 24.7499 73.4148 25.2735C64.8047 34.7155 56.8621 47.7057 52.9368 54.9195C52.4118 55.8852 51.9548 56.7509 51.5802 57.4882C51.1819 56.4348 50.8536 55.3193 50.5547 54.1731C49.6971 50.8708 47.3464 49.4781 43.2429 49.4882C42.9698 49.4877 42.3801 49.9166 41.9315 50.4421C41.4821 50.9672 41.3398 51.3949 41.6151 51.393C45.5635 51.3847 47.8308 52.7217 48.6572 55.8994C49.0485 57.3966 49.4913 58.8429 50.0655 60.1709C50.1226 60.3031 50.2811 60.6373 50.3231 60.6654C50.5624 60.8262 51.1911 60.273 51.3294 60.1476C51.3963 60.0873 52.2214 59.3175 52.1885 58.8726ZM50.2794 60.5006C50.2808 60.5124 50.28 60.5266 50.2822 60.5389C50.2794 60.5299 50.2802 60.5157 50.2794 60.5006Z" fill="#D12455"/>
</svg>
