<svg width="113" height="93" viewBox="0 0 113 93" fill="none" xmlns="http://www.w3.org/2000/svg">
<g id="Arrow">
<g id="Vector">
<path fill-rule="evenodd" clip-rule="evenodd" d="M8.68461 27.6964C32.0841 21.1113 48.5006 20.9846 59.3852 24.7316C75.8222 30.391 79.6527 44.8822 75.6424 59.5638C73.1244 68.79 63.7932 78.3595 56.4461 89.4625C56.149 89.9121 56.6176 90.0242 57.4938 89.7125C58.3659 89.4031 59.3213 88.7839 59.6143 88.3366C67.0476 77.1036 76.4225 67.4459 78.9716 58.111C83.0373 43.225 79.1273 28.5448 62.4616 22.8049C51.2774 18.9542 34.3466 19.1296 10.2999 25.8966C9.4899 26.1244 8.47323 26.7104 8.02704 27.2075C7.58086 27.7046 7.87457 27.9243 8.68461 27.6964Z" fill="white"/>
<path fill-rule="evenodd" clip-rule="evenodd" d="M8.68461 27.6964C32.0841 21.1113 48.5006 20.9846 59.3852 24.7316C75.8222 30.391 79.6527 44.8822 75.6424 59.5638C73.1244 68.79 63.7932 78.3595 56.4461 89.4625C56.149 89.9121 56.6176 90.0242 57.4938 89.7125C58.3659 89.4031 59.3213 88.7839 59.6143 88.3366C67.0476 77.1036 76.4225 67.4459 78.9716 58.111C83.0373 43.225 79.1273 28.5448 62.4616 22.8049C51.2774 18.9542 34.3466 19.1296 10.2999 25.8966C9.4899 26.1244 8.47323 26.7104 8.02704 27.2075C7.58086 27.7046 7.87457 27.9243 8.68461 27.6964Z" fill="url(#paint0_linear_1154_3912)" fill-opacity="0.2"/>
</g>
<g id="Vector_2">
<path fill-rule="evenodd" clip-rule="evenodd" d="M58.801 90.4162C58.8316 90.375 59.0246 90.1046 59.2316 89.863C60.0799 88.864 61.8379 87.0344 64.2689 84.6718C72.4375 76.7432 88.1733 62.8375 103.459 53.8987C104.341 53.383 104.823 52.8244 104.538 52.6497C104.253 52.475 103.311 52.7488 102.429 53.2645C86.5243 62.5653 70.0204 77.0426 61.5242 85.2915C60.3874 86.396 59.3873 87.3919 58.5556 88.2465C58.4577 86.6234 58.4828 84.9448 58.5617 83.2367C58.7937 78.3169 56.1512 75.3852 50.4931 73.6311C50.1171 73.5127 49.121 73.8497 48.278 74.3805C47.4341 74.9103 47.0548 75.4383 47.435 75.5544C52.8785 77.2441 55.4301 80.0632 55.2084 84.7979C55.1066 87.0295 55.0975 89.2132 55.3203 91.2905C55.3423 91.4973 55.4175 92.026 55.4635 92.0828C55.7243 92.4075 56.8273 91.916 57.0715 91.8029C57.1895 91.7486 58.6558 91.0434 58.801 90.4162ZM55.4738 91.8369C55.4707 91.8538 55.4634 91.873 55.4612 91.8909C55.4612 91.8773 55.4684 91.8581 55.4738 91.8369Z" fill="white"/>
<path fill-rule="evenodd" clip-rule="evenodd" d="M58.801 90.4162C58.8316 90.375 59.0246 90.1046 59.2316 89.863C60.0799 88.864 61.8379 87.0344 64.2689 84.6718C72.4375 76.7432 88.1733 62.8375 103.459 53.8987C104.341 53.383 104.823 52.8244 104.538 52.6497C104.253 52.475 103.311 52.7488 102.429 53.2645C86.5243 62.5653 70.0204 77.0426 61.5242 85.2915C60.3874 86.396 59.3873 87.3919 58.5556 88.2465C58.4577 86.6234 58.4828 84.9448 58.5617 83.2367C58.7937 78.3169 56.1512 75.3852 50.4931 73.6311C50.1171 73.5127 49.121 73.8497 48.278 74.3805C47.4341 74.9103 47.0548 75.4383 47.435 75.5544C52.8785 77.2441 55.4301 80.0632 55.2084 84.7979C55.1066 87.0295 55.0975 89.2132 55.3203 91.2905C55.3423 91.4973 55.4175 92.026 55.4635 92.0828C55.7243 92.4075 56.8273 91.916 57.0715 91.8029C57.1895 91.7486 58.6558 91.0434 58.801 90.4162ZM55.4738 91.8369C55.4707 91.8538 55.4634 91.873 55.4612 91.8909C55.4612 91.8773 55.4684 91.8581 55.4738 91.8369Z" fill="url(#paint1_linear_1154_3912)" fill-opacity="0.2"/>
</g>
</g>
<defs>
<linearGradient id="paint0_linear_1154_3912" x1="41.6031" y1="34.0632" x2="68.9615" y2="83.448" gradientUnits="userSpaceOnUse">
<stop stop-color="white" stop-opacity="0"/>
<stop offset="1" stop-color="#2D94D3" stop-opacity="0.35"/>
</linearGradient>
<linearGradient id="paint1_linear_1154_3912" x1="74.4427" y1="66.3084" x2="81.1794" y2="78.5488" gradientUnits="userSpaceOnUse">
<stop stop-color="white" stop-opacity="0"/>
<stop offset="1" stop-color="#2D94D3" stop-opacity="0.35"/>
</linearGradient>
</defs>
</svg>
