<svg width="262" height="262" viewBox="0 0 262 262" fill="none" xmlns="http://www.w3.org/2000/svg">
<g clip-path="url(#clip0_1186_3777)">
<path d="M131.055 262.109C203.434 262.109 262.109 203.434 262.109 131.055C262.109 58.6751 203.434 0 131.055 0C58.6751 0 0 58.6751 0 131.055C0 203.434 58.6751 262.109 131.055 262.109Z" fill="url(#paint0_linear_1186_3777)"/>
<path fill-rule="evenodd" clip-rule="evenodd" d="M59.2529 129.636C97.4453 113.05 122.871 102.028 135.638 96.6814C171.975 81.5136 179.614 78.8946 184.524 78.7855C185.615 78.7855 188.016 79.0038 189.653 80.3132C190.962 81.4044 191.29 82.823 191.508 83.9142C191.726 85.0054 191.944 87.297 191.726 89.0429C189.762 109.776 181.25 160.081 176.886 183.215C175.03 193.035 171.429 196.309 167.938 196.636C160.299 197.291 154.516 191.617 147.205 186.816C135.638 179.286 129.2 174.594 117.96 167.174C104.975 158.662 113.377 153.97 120.797 146.332C122.761 144.367 156.262 113.813 156.916 111.085C157.025 110.758 157.025 109.449 156.262 108.794C155.498 108.139 154.407 108.357 153.534 108.576C152.333 108.794 134.001 121.015 98.3182 145.131C93.0804 148.732 88.3882 150.478 84.1325 150.369C79.4403 150.26 70.4923 147.75 63.7268 145.568C55.5427 142.949 48.9955 141.53 49.5411 136.947C49.8684 134.546 53.1421 132.146 59.2529 129.636Z" fill="white"/>
</g>
<defs>
<linearGradient id="paint0_linear_1186_3777" x1="130.945" y1="0" x2="130.945" y2="260.036" gradientUnits="userSpaceOnUse">
<stop stop-color="#2AABEE"/>
<stop offset="1" stop-color="#229ED9"/>
</linearGradient>
<clipPath id="clip0_1186_3777">
<rect width="262" height="262" fill="white"/>
</clipPath>
</defs>
</svg>
