<svg width="16" height="16" viewBox="0 0 16 16" fill="none" xmlns="http://www.w3.org/2000/svg">
<g id="uil:telegram-alt">
<path id="Vector" d="M14.8433 1.61868C14.6535 1.46079 14.4245 1.35731 14.1805 1.31928C13.9366 1.28124 13.6869 1.31007 13.458 1.40268L1.51067 6.22602C1.25524 6.33115 1.03781 6.51146 0.88723 6.74303C0.736652 6.9746 0.660041 7.24648 0.667562 7.52259C0.675084 7.79871 0.766381 8.06602 0.929342 8.28904C1.0923 8.51207 1.31923 8.68028 1.58 8.77135L3.99667 9.61202L5.34333 14.0667C5.36179 14.1261 5.3885 14.1827 5.42267 14.2347C5.428 14.2427 5.43533 14.248 5.44067 14.2567C5.47995 14.3114 5.52739 14.3597 5.58133 14.4C5.59639 14.4118 5.61196 14.4229 5.628 14.4333C5.69115 14.4753 5.76107 14.5059 5.83467 14.524L5.84333 14.5247L5.84733 14.5267C5.89189 14.5356 5.93722 14.5401 5.98267 14.54L5.99467 14.538C6.06294 14.5369 6.13063 14.5252 6.19533 14.5033C6.21067 14.498 6.22333 14.49 6.238 14.4834C6.2864 14.4635 6.33227 14.438 6.37467 14.4074C6.40843 14.3787 6.44221 14.35 6.476 14.3214L8.27733 12.3327L10.964 14.414C11.2005 14.5982 11.4916 14.6984 11.7913 14.6987C12.1055 14.6983 12.41 14.5899 12.6537 14.3917C12.8974 14.1935 13.0656 13.9175 13.13 13.61L15.3053 2.93202C15.3545 2.69179 15.3375 2.44271 15.2562 2.21139C15.1748 1.98006 15.0321 1.7752 14.8433 1.61868ZM6.24667 9.82402C6.15434 9.91616 6.09126 10.0335 6.06533 10.1614L5.85867 11.164L5.336 9.43535L8.046 8.02402L6.24667 9.82402ZM11.7813 13.36L8.606 10.9C8.47314 10.7975 8.30652 10.7488 8.13936 10.7636C7.97219 10.7784 7.81675 10.8557 7.704 10.98L7.12667 11.6167L7.33067 10.6253L12.0527 5.90335C12.1647 5.79063 12.2328 5.64159 12.2446 5.4831C12.2565 5.32461 12.2113 5.1671 12.1173 5.03897C12.0233 4.91084 11.8866 4.82051 11.7318 4.78428C11.5771 4.74804 11.4145 4.76828 11.2733 4.84135L4.49667 8.36935L2.01333 7.46068L13.9993 2.66668L11.7813 13.36Z" fill="#8C99A8"/>
</g>
</svg>
