<svg width="266" height="266" viewBox="0 0 266 266" fill="none" xmlns="http://www.w3.org/2000/svg">
<g clip-path="url(#clip0_1186_3774)">
<path d="M0 127.68C0 67.4909 0 37.3966 18.6983 18.6983C37.3966 0 67.4909 0 127.68 0H138.32C198.509 0 228.603 0 247.302 18.6983C266 37.3966 266 67.4909 266 127.68V138.32C266 198.509 266 228.603 247.302 247.302C228.603 266 198.509 266 138.32 266H127.68C67.4909 266 37.3966 266 18.6983 247.302C0 228.603 0 198.509 0 138.32V127.68Z" fill="#0077FF"/>
<path d="M141.534 191.631C80.9085 191.631 46.329 150.069 44.8882 80.9089H75.2565C76.254 131.671 98.6418 153.172 116.375 157.606V80.9089H144.971V124.688C162.483 122.804 180.879 102.854 187.086 80.9089H215.681C210.915 107.952 190.965 127.902 176.779 136.104C190.965 142.754 213.687 160.155 222.332 191.631H190.855C184.094 170.573 167.249 154.281 144.971 152.064V191.631H141.534Z" fill="white"/>
</g>
<defs>
<clipPath id="clip0_1186_3774">
<rect width="266" height="266" fill="white"/>
</clipPath>
</defs>
</svg>
