<svg width="16" height="16" viewBox="0 0 16 16" fill="none" xmlns="http://www.w3.org/2000/svg">
<g id="WhatsApp Inc. svg" clip-path="url(#clip0_518_1678)">
<g id="Group">
<g id="Group_2">
<path id="Vector" d="M8.0527 0.0446777C3.70302 0.0446777 0.160913 3.55103 0.152917 7.85681C0.152917 9.23402 0.512725 10.5796 1.20835 11.7668L0.0889511 15.8193L4.27872 14.735C5.4301 15.3603 6.73341 15.6848 8.0527 15.6848C12.4024 15.6848 15.9445 12.1784 15.9525 7.86472C15.9525 5.77516 15.1289 3.81223 13.6417 2.33212C12.1465 0.859925 10.1636 0.0446777 8.0527 0.0446777ZM8.0527 14.363C6.86933 14.363 5.71795 14.0464 4.71049 13.4606L4.47061 13.3182L1.98394 13.9593L2.64759 11.561L2.48767 11.3157C1.83202 10.2788 1.48021 9.08364 1.4882 7.85681C1.4882 4.2713 4.43064 1.35857 8.0527 1.35857C9.80377 1.35857 11.4509 2.03926 12.6902 3.26609C13.9296 4.49292 14.6092 6.12342 14.6092 7.86472C14.6092 11.4502 11.6668 14.363 8.0527 14.363ZM11.6508 9.49522C11.4509 9.40024 10.4834 8.92534 10.2995 8.86202C10.1156 8.7987 9.98767 8.76704 9.85174 8.957C9.72381 9.15487 9.34002 9.5902 9.22808 9.72476C9.11614 9.8514 8.9962 9.87514 8.8043 9.77225C8.60441 9.67727 7.97275 9.47147 7.22115 8.80661C6.63746 8.29214 6.23767 7.65102 6.12573 7.45314C6.01379 7.25527 6.10974 7.15237 6.21369 7.05739C6.30164 6.97033 6.41358 6.82786 6.50953 6.71705C6.60548 6.60624 6.63746 6.51917 6.70942 6.39253C6.77339 6.26589 6.7414 6.14716 6.69343 6.05218C6.64545 5.9572 6.24567 4.99157 6.08575 4.60373C5.92584 4.22381 5.76592 4.2713 5.63799 4.2713C5.52605 4.26339 5.39012 4.26339 5.26219 4.26339C5.13426 4.26339 4.91838 4.31088 4.73447 4.50875C4.55057 4.70663 4.04684 5.17361 4.04684 6.13925C4.04684 7.09697 4.75047 8.03094 4.85441 8.15758C4.95036 8.28422 6.24567 10.263 8.22861 11.1099C8.70036 11.3078 9.06816 11.4344 9.35601 11.5215C9.82776 11.6719 10.2595 11.6481 10.5953 11.6006C10.9711 11.5452 11.7627 11.1257 11.9306 10.6746C12.0985 10.2155 12.0985 9.82765 12.0426 9.7485C11.9786 9.64561 11.8507 9.59811 11.6508 9.49522Z" fill="#8C99A8"/>
</g>
</g>
</g>
<defs>
<clipPath id="clip0_518_1678">
<rect width="16" height="16" fill="white"/>
</clipPath>
</defs>
</svg>
