<svg width="18" height="18" viewBox="0 0 18 18" fill="none" xmlns="http://www.w3.org/2000/svg">
<g id="WhatsApp" opacity="0.6">
<path id="Page-1" fill-rule="evenodd" clip-rule="evenodd" d="M8.69461 17.2505H8.69104C7.24801 17.25 5.83009 16.8879 4.57073 16.201L0 17.4L1.2232 12.9321C0.468672 11.6245 0.0716414 10.1412 0.0722884 8.62161C0.0741799 3.86769 3.94208 0 8.69452 0C11.0011 0.000995473 13.1659 0.898919 14.7937 2.52869C16.4216 4.15837 17.3176 6.32462 17.3167 8.62841C17.3148 13.3812 13.4484 17.2485 8.69461 17.2505ZM4.78278 14.6398L5.04447 14.7952C6.14476 15.4481 7.40603 15.7936 8.69198 15.7941H8.69488C12.6448 15.7941 15.8596 12.5792 15.8612 8.62766C15.8619 6.71277 15.1172 4.91228 13.7642 3.55768C12.4112 2.20308 10.6118 1.45672 8.6977 1.45605C4.74475 1.45605 1.52989 4.67063 1.52832 8.62185C1.52777 9.97597 1.90664 11.2947 2.62401 12.4357L2.79441 12.7068L2.07044 15.3514L4.78278 14.6398ZM12.7434 10.4845C12.8936 10.5572 12.9951 10.6062 13.0384 10.6785C13.0922 10.7683 13.0922 11.1997 12.9128 11.703C12.7332 12.2062 11.8725 12.6655 11.4586 12.7274C11.0874 12.7829 10.6177 12.806 10.1017 12.642C9.78874 12.5427 9.38748 12.4102 8.87348 12.1882C6.85379 11.3161 5.48889 9.35857 5.23093 8.98861C5.21286 8.96269 5.20022 8.94456 5.19317 8.93515L5.19143 8.93283C5.07742 8.78071 4.31348 7.76143 4.31348 6.70651C4.31348 5.71415 4.80094 5.194 5.02532 4.95458C5.0407 4.93817 5.05483 4.92309 5.06749 4.90926C5.26497 4.69357 5.49838 4.63965 5.64199 4.63965C5.7856 4.63965 5.92938 4.64098 6.0549 4.64728C6.07039 4.64806 6.0865 4.64796 6.10316 4.64787C6.2287 4.64713 6.38522 4.64621 6.53963 5.0171C6.59903 5.15984 6.68596 5.37146 6.77764 5.59466C6.96301 6.04597 7.16783 6.5446 7.20386 6.61676C7.25773 6.7246 7.29363 6.85036 7.22182 6.99421C7.21104 7.01577 7.20107 7.03613 7.19155 7.05557C7.13761 7.16569 7.09794 7.24669 7.00639 7.35358C6.9704 7.39561 6.93319 7.44091 6.89599 7.48622C6.82187 7.57648 6.74776 7.66674 6.68323 7.73103C6.57537 7.83846 6.4631 7.95501 6.58877 8.1707C6.71444 8.38639 7.14681 9.09185 7.78727 9.66313C8.47573 10.2772 9.0741 10.5368 9.37739 10.6683C9.43662 10.694 9.4846 10.7148 9.5198 10.7324C9.73515 10.8403 9.86083 10.8223 9.98651 10.6785C10.1122 10.5347 10.5251 10.0494 10.6687 9.83377C10.8123 9.61817 10.9559 9.65408 11.1534 9.72595C11.3509 9.79791 12.4101 10.319 12.6255 10.4269C12.6676 10.4479 12.7069 10.4669 12.7434 10.4845Z" fill="#F5F9FA"/>
</g>
</svg>
