<svg width="60" height="69" viewBox="0 0 60 69" fill="none" xmlns="http://www.w3.org/2000/svg">
<g id="zdorovie" clip-path="url(#clip0_1205_1598)">
<path id="Vector" d="M59.0604 30C59.0653 34.7764 57.8903 39.4801 55.6399 43.6932C53.3894 47.9063 50.1332 51.4982 46.1604 54.15C51.3404 45.63 52.7504 33.71 49.4204 19.86C42.9304 22.69 35.3204 20.3 30.0004 16.29C25.0004 20.68 16.9404 22.7 10.4504 19.87C7.05041 34 9.05042 46.06 14.5804 54.6C10.2929 51.9159 6.78024 48.1591 4.38985 43.7011C1.99947 39.2431 0.814138 34.2384 0.951083 29.1818C1.08803 24.1253 2.54251 19.1921 5.17068 14.87C7.79885 10.5479 11.5097 6.98676 15.9362 4.53864C20.3627 2.09051 25.3516 0.840237 30.4095 0.91145C35.4674 0.982663 40.4192 2.3729 44.775 4.94468C49.1309 7.51645 52.74 11.1807 55.2454 15.575C57.7509 19.9694 59.0659 24.9416 59.0604 30Z" fill="#83ACED"/>
<path id="Vector_2" d="M30.0004 16.26C35.3204 20.26 42.9304 22.65 49.4204 19.83C55.1104 43.48 47.0004 61.49 29.9304 66.6C14.2004 61.36 4.76037 43.49 10.4504 19.84C16.9404 22.67 25.0004 20.65 30.0004 16.26Z" stroke="#1B3544" stroke-width="3" stroke-linecap="round" stroke-linejoin="round"/>
<path id="Vector_3" d="M40.1096 36.59H33.4796V29.96H26.5196V36.59H19.8896V43.56H26.5196V50.18H33.4796V43.56H40.1096V36.59Z" fill="#2355D0"/>
</g>
<defs>
<clipPath id="clip0_1205_1598">
<rect width="60" height="69" fill="white"/>
</clipPath>
</defs>
</svg>
