<svg width="48" height="48" viewBox="0 0 48 48" fill="none" xmlns="http://www.w3.org/2000/svg">
<g id="building 2" clip-path="url(#clip0_301_939)">
<g id="building">
<path id="Combined-Shape" fill-rule="evenodd" clip-rule="evenodd" d="M47.2416 0.22465C47.7128 0.497877 47.9997 0.980218 48 1.49966V46.5C48 47.3284 47.2837 48 46.4 48H36.8C35.9163 48 35.2 47.3284 35.2 46.5V42H32V46.5C32 47.3284 31.2837 48 30.4 48H1.6C0.716344 48 0 47.3284 0 46.5V29.9999C0.00052264 29.3545 0.44129 28.7818 1.0944 28.5779L19.2 22.9198V13.4997C19.2 12.9321 19.5419 12.4131 20.0832 12.1587L45.6832 0.15865C46.1797 -0.074334 46.7695 -0.0493531 47.2416 0.22465ZM19.2 26.0818L3.2 31.0799V45H19.2V26.0818ZM22.4 45H28.8V40.4999C28.8 39.6715 29.5163 38.9999 30.4 38.9999H36.8C37.6837 38.9999 38.4 39.6715 38.4 40.4999V45H44.8V3.92668L22.4 14.4268V45ZM6.4 32.9999H9.6V35.9999H6.4V32.9999ZM12.8 32.9999H16V35.9999H12.8V32.9999ZM6.4 38.9999H9.6V42H6.4V38.9999ZM12.8 38.9999H16V42H12.8V38.9999ZM25.6 26.9998H28.8V29.9999H25.6V26.9998ZM32 26.9998H35.2V29.9999H32V26.9998ZM25.6 32.9999H28.8V35.9999H25.6V32.9999ZM32 32.9999H35.2V35.9999H32V32.9999ZM38.4 26.9998H41.6V29.9999H38.4V26.9998ZM38.4 32.9999H41.6V35.9999H38.4V32.9999ZM25.6 20.9998H28.8V23.9998H25.6V20.9998ZM32 20.9998H35.2V23.9998H32V20.9998ZM38.4 20.9998H41.6V23.9998H38.4V20.9998ZM25.6 14.9998H28.8V17.9998H25.6V14.9998ZM32 14.9998H35.2V17.9998H32V14.9998ZM38.4 14.9998H41.6V17.9998H38.4V14.9998ZM38.4 8.99972H41.6V11.9997H38.4V8.99972Z" fill="#5587FF"/>
</g>
</g>
<defs>
<clipPath id="clip0_301_939">
<rect width="48" height="48" fill="white"/>
</clipPath>
</defs>
</svg>
